<svg xmlns="http://www.w3.org/2000/svg" viewBox="0 0 32 32" shape-rendering="crispEdges">
    <!-- Head -->
    <rect x="10" y="4" width="12" height="10" fill="#FCD9B7"/>
    <rect x="9" y="5" width="14" height="8" fill="#FCD9B7"/>
    
    <!-- Hair/Cap -->
    <rect x="11" y="3" width="10" height="1" fill="#8B4513"/>
    
    <!-- Face features -->
    <rect x="13" y="8" width="1" height="1" fill="#000000"/> 
    <rect x="18" y="8" width="1" height="1" fill="#000000"/> 
    <rect x="14" y="10" width="4" height="1" fill="#000000"/> 

    <!-- Tunic/Body -->
    <rect x="11" y="14" width="10" height="10" fill="#FFFFFF"/>
    <!-- Tunic trim/Sash -->
    <rect x="10" y="14" width="1" height="10" fill="#4CAF50"/>
    <rect x="21" y="14" width="1" height="10" fill="#4CAF50"/>
    <rect x="10" y="24" width="12" height="1" fill="#4CAF50"/>

    <!-- Arms/Hands (Holding sticks) -->
    <rect x="9" y="16" width="2" height="2" fill="#FCD9B7"/> 
    <rect x="21" y="16" width="2" height="2" fill="#FCD9B7"/>
    
    <!-- Sticks -->
    <!-- Left stick -->
    <rect x="8" y="18" width="1" height="6" fill="#A0522D"/> 
    <rect x="7" y="24" width="2" height="1" fill="#A0522D"/> 
    <!-- Right stick -->
    <rect x="23" y="18" width="1" height="6" fill="#A0522D"/>
    <rect x="23" y="24" width="2" height="1" fill="#A0522D"/> 

    <!-- Feet/Base -->
    <rect x="12" y="25" width="8" height="2" fill="#8B4513"/>
</svg>