<svg width="32" height="32" viewBox="0 0 32 32" shape-rendering="crispEdges" xmlns="http://www.w3.org/2000/svg"><path fill="#000000" d="M10 2h2v1h1v6h-1v1h-1v1h-1v-1h-1v-6h1v-1h1v-1zM15 3h3v1h1v1h1v3h-1v1h-1v1h-3v-1h-1v-1h-1v-3h1v-1h1v-1zM12 11h1v1h3v-1h3v2h1v1h1v1h1v3h-1v1h-1v1h-1v1h-1v1h-1v1h-1v1h-6v-1h-1v-1h-1v-1h-1v-1h-1v-1h-1v-3h1v-1h1v-1h1v-1h1v-2z"/><path fill="#FFFFFF" d="M11 3h1v6h-1v-6zM16 4h2v1h-1v3h-1v-3h1v-1zM13 12h6v1h1v1h1v1h1v3h-1v1h-1v1h-1v1h-1v1h-1v1h-6v-1h-1v-1h-1v-1h-1v-1h-1v-1h-1v-3h1v-1h1v-1h1v-1z"/><path fill="#FFCCCC" d="M17 5h1v1h1v1h-1v1h-1v-1h-1v-1h1v-1z"/></svg>