<svg width="32" height="32" viewBox="0 0 32 32" shape-rendering="crispEdges" xmlns="http://www.w3.org/2000/svg"><path fill="#000000" d="M15 3h3v1h1v1h1v3h-1v1h-1v1h-3v-1h-1v-1h-1v-3h1v-1h1v-1zM13 11h3v1h1v1h1v3h-1v1h-1v1h-1v1h-4v-1h-1v-1h-1v-1h-1v-3h1v-1h1v-1h-1v-2h2v-1z"/><path fill="#FFFFFF" d="M16 4h2v1h-1v3h-1v-3h1v-1zM14 12h3v1h1v1h1v3h-1v1h-1v1h-1v1h-2v-1h-1v-1h-1v-1h-1v-3h1v-1h1v-1z"/><path fill="#FFCCCC" d="M17 5h1v1h1v1h-1v1h-1v-1h-1v-1h1v-1zM14 20h3v1h-3v-1z"/><path fill="#000000" d="M16 15h1v3h-1v-3z"/></svg>