<svg viewBox="0 0 32 32" xmlns="http://www.w3.org/2000/svg" shape-rendering="crispEdges">
  <defs>
    <style>
      .g1{fill:#386738}.g2{fill:#689D68}.g3{fill:#98C498}.b{fill:#000000}
    </style>
  </defs>
  <!-- Stem -->
  <rect x="14" y="4" width="4" height="1" class="g1"/>
  <rect x="15" y="5" width="2" height="1" class="g2"/>
  <rect x="14" y="5" width="1" height="1" class="g1"/>
  <rect x="17" y="5" width="1" height="1" class="g1"/>

  <!-- Body Outline/Fill -->
  <rect x="10" y="6" width="12" height="1" class="g1"/>
  <rect x="9" y="7" width="14" height="1" class="g1"/>
  <rect x="8" y="8" width="16" height="1" class="g1"/>
  <rect x="8" y="7" width="1" height="1" class="g2"/>
  <rect x="23" y="7" width="1" height="1" class="g2"/>
  <rect x="9" y="8" width="14" height="1" class="g2"/>
  
  <rect x="7" y="9" width="1" height="19" class="g1"/>
  <rect x="24" y="9" width="1" height="19" class="g1"/>
  <rect x="8" y="9" width="16" height="19" class="g2"/>
  
  <!-- Texture (G3) -->
  <rect x="10" y="10" width="2" height="2" class="g3"/>
  <rect x="19" y="16" width="2" height="2" class="g3"/>
  <rect x="13" y="21" width="1" height="1" class="g3"/>
  <rect x="22" y="25" width="2" height="1" class="g3"/>

  <!-- Bottom Curve -->
  <rect x="8" y="28" width="16" height="1" class="g1"/>
  <rect x="9" y="29" width="14" height="1" class="g1"/>
  <rect x="10" y="30" width="12" height="1" class="g1"/>
  <rect x="8" y="28" width="16" height="1" class="g2"/>
  <rect x="9" y="29" width="14" height="1" class="g2"/>
  <rect x="10" y="30" width="12" height="1" class="g2"/>
  
  <!-- Eyes -->
  <rect x="11" y="12" width="2" height="2" class="b"/>
  <rect x="18" y="12" width="2" height="2" class="b"/>
  
  <!-- Smile -->
  <rect x="14" y="16" width="4" height="1" class="b"/>
</svg>