<svg viewBox="0 0 32 32" xmlns="http://www.w3.org/2000/svg" shape-rendering="crispEdges">
  <!-- Head (Skin tone) -->
  <rect x="11" y="4" width="10" height="10" fill="#F7C59F"/>
  <!-- Eyes -->
  <rect x="13" y="7" width="1" height="1" fill="#222222"/>
  <rect x="18" y="7" width="1" height="1" fill="#222222"/>
  <!-- Mouth/Cute Feature -->
  <rect x="15" y="10" width="2" height="1" fill="#222222"/>
  
  <!-- Neck -->
  <rect x="14" y="14" width="4" height="1" fill="#F7C59F"/>
  
  <!-- Jersey (Red) -->
  <rect x="10" y="15" width="12" height="6" fill="#D60000"/>
  <!-- White trim/Number 23 (Simplified) -->
  <rect x="11" y="15" width="10" height="1" fill="#FFFFFF"/>
  <!-- Number detail (very small simplification) -->
  <rect x="14" y="17" width="1" height="1" fill="#FFFFFF"/>
  <rect x="17" y="17" width="1" height="1" fill="#FFFFFF"/>
  
  <!-- Arms (Skin tone) -->
  <rect x="9" y="16" width="1" height="5" fill="#F7C59F"/>
  <rect x="22" y="16" width="1" height="5" fill="#F7C59F"/>
  
  <!-- Basketball (Held slightly in front/below body) -->
  <rect x="12" y="19" width="8" height="8" fill="#FF8C00"/>
  <rect x="12" y="22" width="8" height="1" fill="#333333"/>
  <rect x="15" y="19" width="1" height="8" fill="#333333"/>

  <!-- Shorts (Black) -->
  <rect x="11" y="21" width="10" height="3" fill="#222222"/>
  
  <!-- Legs (Skin tone) -->
  <rect x="13" y="24" width="2" height="4" fill="#F7C59F"/>
  <rect x="17" y="24" width="2" height="4" fill="#F7C59F"/>
  
  <!-- Shoes (Black) -->
  <rect x="12" y="28" width="4" height="2" fill="#222222"/>
  <rect x="16" y="28" width="4" height="2" fill="#222222"/>
</svg>