<svg width="32" height="32" viewBox="0 0 32 32" xmlns="http://www.w3.org/2000/svg"><rect x="14" y="2" width="4" height="5" fill="#3d6ec9"/><rect x="13" y="2" width="1" height="5" fill="#5d3116"/><rect x="18" y="2" width="1" height="5" fill="#5d3116"/><rect x="14" y="1" width="4" height="1" fill="#5d3116"/><rect x="10" y="7" width="12" height="2" fill="#3d6ec9"/><rect x="9" y="7" width="1" height="2" fill="#5d3116"/><rect x="22" y="7" width="1" height="2" fill="#5d3116"/><rect x="10" y="6" width="12" height="1" fill="#5d3116"/><rect x="10" y="9" width="12" height="8" fill="#f4c29c"/><rect x="9" y="9" width="1" height="8" fill="#5d3116"/><rect x="22" y="9" width="1" height="8" fill="#5d3116"/><rect x="10" y="17" width="12" height="8" fill="#3d6ec9"/><rect x="9" y="17" width="1" height="8" fill="#5d3116"/><rect x="22" y="17" width="1" height="8" fill="#5d3116"/><rect x="10" y="25" width="12" height="1" fill="#5d3116"/><rect x="6" y="19" width="3" height="1" fill="#5d3116"/><rect x="23" y="19" width="3" height="1" fill="#5d3116"/><rect x="13" y="25" width="1" height="4" fill="#5d3116"/><rect x="18" y="25" width="1" height="4" fill="#5d3116"/><rect x="12" y="28" width="2" height="1" fill="#5d3116"/><rect x="18" y="28" width="2" height="1" fill="#5d3116"/></svg>