<svg width="32" height="32" viewBox="0 0 32 32" xmlns="http://www.w3.org/2000/svg"><rect x="15" y="2" width="2" height="5" fill="#3d6ec9"/><rect x="14" y="2" width="1" height="5" fill="#5d3116"/><rect x="17" y="2" width="1" height="5" fill="#5d3116"/><rect x="15" y="1" width="2" height="1" fill="#5d3116"/><rect x="13" y="7" width="6" height="2" fill="#3d6ec9"/><rect x="12" y="7" width="1" height="2" fill="#5d3116"/><rect x="19" y="7" width="1" height="2" fill="#5d3116"/><rect x="13" y="6" width="6" height="1" fill="#5d3116"/><rect x="13" y="9" width="6" height="8" fill="#f4c29c"/><rect x="12" y="9" width="1" height="8" fill="#5d3116"/><rect x="19" y="9" width="1" height="8" fill="#5d3116"/><rect x="13" y="12" width="1" height="2" fill="#ffffff"/><rect x="13" y="13" width="1" height="1" fill="#000000"/><rect x="13" y="17" width="6" height="8" fill="#3d6ec9"/><rect x="12" y="17" width="1" height="8" fill="#5d3116"/><rect x="19" y="17" width="1" height="8" fill="#5d3116"/><rect x="13" y="25" width="6" height="1" fill="#5d3116"/><rect x="14" y="20" width="1" height="2" fill="#5d3116"/><rect x="15" y="25" width="1" height="4" fill="#5d3116"/><rect x="14" y="28" width="2" height="1" fill="#5d3116"/></svg>