<svg xmlns="http://www.w3.org/2000/svg" viewBox="0 0 32 32" shape-rendering="crispEdges"><g fill="#1A1A1A"><rect x="12" y="5" width="8" height="1"/><rect x="11" y="6" width="1" height="2"/><rect x="20" y="6" width="1" height="3"/><rect x="10" y="8" width="1" height="4"/><rect x="21" y="9" width="1" height="3"/><rect x="11" y="12" width="1" height="1"/><rect x="20" y="12" width="1" height="1"/><rect x="12" y="13" width="1" height="1"/><rect x="19" y="13" width="1" height="1"/><rect x="13" y="14" width="5" height="1"/><rect x="10" y="15" width="10" height="1"/><rect x="9" y="16" width="12" height="1"/><rect x="8" y="17" width="14" height="2"/><rect x="9" y="19" width="12" height="1"/><rect x="10" y="20" width="10" height="1"/></g><g fill="#FFC299"><rect x="11" y="9" width="9" height="1"/><rect x="11" y="10" width="10" height="1"/><rect x="11" y="11" width="9" height="1"/><rect x="12" y="12" width="8" height="1"/><rect x="13" y="13" width="6" height="1"/><rect x="10" y="10" width="1" height="1"/></g><g fill="#1A1A1A"><rect x="12" y="6" width="8" height="2"/><rect x="14" y="10" width="1" height="1"/></g><g fill="#333333"><rect x="11" y="15" width="9" height="1"/><rect x="10" y="16" width="11" height="1"/><rect x="9" y="17" width="13" height="2"/><rect x="10" y="19" width="11" height="1"/><rect x="11" y="20" width="9" height="1"/></g></svg>