<svg version="1.1" id="Layer_1" xmlns="http://www.w3.org/2000/svg" xmlns:xlink="http://www.w3.org/1999/xlink" x="0px" y="0px" viewBox="0 0 32 32" style="enable-background:new 0 0 32 32;" xml:space="preserve" shape-rendering="crispEdges"><rect x="9" y="2" style="fill:#2D5E2D;" width="14" height="1"/><rect x="7" y="3" style="fill:#2D5E2D;" width="2" height="1"/><rect x="9" y="3" style="fill:#FF6B6B;" width="14" height="1"/><rect x="23" y="3" style="fill:#2D5E2D;" width="2" height="1"/><rect x="6" y="4" style="fill:#2D5E2D;" width="1" height="1"/><rect x="7" y="4" style="fill:#FF6B6B;" width="18" height="1"/><rect x="25" y="4" style="fill:#2D5E2D;" width="1" height="1"/><rect x="5" y="5" style="fill:#2D5E2D;" width="1" height="1"/><rect x="6" y="5" style="fill:#FF6B6B;" width="20" height="1"/><rect x="26" y="5" style="fill:#2D5E2D;" width="1" height="1"/><rect x="4" y="6" style="fill:#2D5E2D;" width="1" height="1"/><rect x="5" y="6" style="fill:#FF6B6B;" width="22" height="1"/><rect x="27" y="6" style="fill:#2D5E2D;" width="1" height="1"/><rect x="3" y="7" style="fill:#2D5E2D;" width="1" height="1"/><rect x="4" y="7" style="fill:#FF6B6B;" width="24" height="1"/><rect x="28" y="7" style="fill:#2D5E2D;" width="1" height="1"/><rect x="3" y="8" style="fill:#2D5E2D;" width="1" height="1"/><rect x="4" y="8" style="fill:#FF6B6B;" width="5" height="1"/><rect x="9" y="8" style="fill:#000000;" width="2" height="2"/><rect x="11" y="8" style="fill:#FF6B6B;" width="10" height="1"/><rect x="21" y="8" style="fill:#000000;" width="2" height="2"/><rect x="23" y="8" style="fill:#FF6B6B;" width="5" height="1"/><rect x="28" y="8" style="fill:#2D5E2D;" width="1" height="1"/><rect x="2" y="9" style="fill:#2D5E2D;" width="1" height="1"/><rect x="3" y="9" style="fill:#FF6B6B;" width="6" height="1"/><rect x="11" y="9" style="fill:#FF6B6B;" width="10" height="1"/><rect x="23" y="9" style="fill:#FF6B6B;" width="5" height="1"/><rect x="29" y="9" style="fill:#2D5E2D;" width="1" height="1"/><rect x="2" y="10" style="fill:#2D5E2D;" width="1" height="1"/><rect x="3" y="10" style="fill:#FF6B6B;" width="26" height="1"/><rect x="29" y="10" style="fill:#2D5E2D;" width="1" height="1"/><rect x="2" y="11" style="fill:#2D5E2D;" width="1" height="1"/><rect x="3" y="11" style="fill:#FF6B6B;" width="26" height="1"/><rect x="29" y="11" style="fill:#2D5E2D;" width="1" height="1"/><rect x="1" y="12" style="fill:#2D5E2D;" width="1" height="2"/><rect x="2" y="12" style="fill:#FF6B6B;" width="6" height="1"/><rect x="8" y="12" style="fill:#000000;" width="1" height="1"/><rect x="9" y="12" style="fill:#FF6B6B;" width="14" height="1"/><rect x="23" y="12" style="fill:#000000;" width="1" height="1"/><rect x="24" y="12" style="fill:#FF6B6B;" width="6" height="1"/><rect x="30" y="12" style="fill:#2D5E2D;" width="1" height="2"/><rect x="2" y="13" style="fill:#FF6B6B;" width="7" height="1"/><rect x="9" y="13" style="fill:#000000;" width="1" height="1"/><rect x="10" y="13" style="fill:#FF6B6B;" width="12" height="1"/><rect x="22" y="13" style="fill:#000000;" width="1" height="1"/><rect x="23" y="13" style="fill:#FF6B6B;" width="7" height="1"/><rect x="1" y="14" style="fill:#2D5E2D;" width="1" height="1"/><rect x="2" y="14" style="fill:#FF6B6B;" width="28" height="1"/><rect x="30" y="14" style="fill:#2D5E2D;" width="1" height="1"/><rect x="1" y="15" style="fill:#2D5E2D;" width="1" height="1"/><rect x="2" y="15" style="fill:#FF6B6B;" width="11" height="1"/><rect x="13" y="15" style="fill:#000000;" width="1" height="1"/><rect x="14" y="15" style="fill:#FF6B6B;" width="4" height="1"/><rect x="18" y="15" style="fill:#000000;" width="1" height="1"/><rect x="19" y="15" style="fill:#FF6B6B;" width="11" height="1"/><rect x="30" y="15" style="fill:#2D5E2D;" width="1" height="1"/><rect x="1" y="16" style="fill:#2D5E2D;" width="1" height="1"/><rect x="2" y="16" style="fill:#FF6B6B;" width="28" height="1"/><rect x="30" y="16" style="fill:#2D5E2D;" width="1" height="1"/><rect x="1" y="17" style="fill:#2D5E2D;" width="1" height="1"/><rect x="2" y="17" style="fill:#FF6B6B;" width="28" height="1"/><rect x="30" y="17" style="fill:#2D5E2D;" width="1" height="1"/><rect x="1" y="18" style="fill:#2D5E2D;" width="1" height="1"/><rect x="2" y="18" style="fill:#5CB85C;" width="28" height="1"/><rect x="30" y="18" style="fill:#2D5E2D;" width="1" height="1"/><rect x="2" y="19" style="fill:#2D5E2D;" width="1" height="1"/><rect x="3" y="19" style="fill:#5CB85C;" width="2" height="1"/><rect x="5" y="19" style="fill:#98E898;" width="2" height="1"/><rect x="7" y="19" style="fill:#5CB85C;" width="2" height="1"/><rect x="9" y="19" style="fill:#98E898;" width="2" height="1"/><rect x="11" y="19" style="fill:#5CB85C;" width="2" height="1"/><rect x="13" y="19" style="fill:#98E898;" width="2" height="1"/><rect x="15" y="19" style="fill:#5CB85C;" width="2" height="1"/><rect x="17" y="19" style="fill:#98E898;" width="2" height="1"/><rect x="19" y="19" style="fill:#5CB85C;" width="2" height="1"/><rect x="21" y="19" style="fill:#98E898;" width="2" height="1"/><rect x="23" y="19" style="fill:#5CB85C;" width="2" height="1"/><rect x="25" y="19" style="fill:#98E898;" width="2" height="1"/><rect x="27" y="19" style="fill:#5CB85C;" width="2" height="1"/><rect x="29" y="19" style="fill:#2D5E2D;" width="1" height="1"/><rect x="2" y="20" style="fill:#2D5E2D;" width="1" height="1"/><rect x="3" y="20" style="fill:#5CB85C;" width="1" height="1"/><rect x="4" y="20" style="fill:#98E898;" width="2" height="1"/><rect x="6" y="20" style="fill:#5CB85C;" width="2" height="1"/><rect x="8" y="20" style="fill:#98E898;" width="2" height="1"/><rect x="10" y="20" style="fill:#5CB85C;" width="2" height="1"/><rect x="12" y="20" style="fill:#98E898;" width="2" height="1"/><rect x="14" y="20" style="fill:#5CB85C;" width="2" height="1"/><rect x="16" y="20" style="fill:#98E898;" width="2" height="1"/><rect x="18" y="20" style="fill:#5CB85C;" width="2" height="1"/><rect x="20" y="20" style="fill:#98E898;" width="2" height="1"/><rect x="22" y="20" style="fill:#5CB85C;" width="2" height="1"/><rect x="24" y="20" style="fill:#98E898;" width="2" height="1"/><rect x="26" y="20" style="fill:#5CB85C;" width="2" height="1"/><rect x="28" y="20" style="fill:#98E898;" width="1" height="1"/><rect x="29" y="20" style="fill:#2D5E2D;" width="1" height="1"/><rect x="3" y="21" style="fill:#2D5E2D;" width="1" height="1"/><rect x="4" y="21" style="fill:#5CB85C;" width="24" height="1"/><rect x="28" y="21" style="fill:#2D5E2D;" width="1" height="1"/><rect x="4" y="22" style="fill:#2D5E2D;" width="24" height="1"/><rect x="11" y="23" style="fill:#2D5E2D;" width="2" height="3"/><rect x="19" y="23" style="fill:#2D5E2D;" width="2" height="3"/><rect x="10" y="26" style="fill:#2D5E2D;" width="3" height="1"/><rect x="19" y="26" style="fill:#2D5E2D;" width="3" height="1"/></svg>