<svg version="1.1" id="Layer_1" xmlns="http://www.w3.org/2000/svg" xmlns:xlink="http://www.w3.org/1999/xlink" x="0px" y="0px" viewBox="0 0 32 32" style="enable-background:new 0 0 32 32;" xml:space="preserve" shape-rendering="crispEdges"><rect x="16" y="2" style="fill:#2D5E2D;" width="3" height="1"/><rect x="15" y="3" style="fill:#2D5E2D;" width="1" height="1"/><rect x="16" y="3" style="fill:#FF6B6B;" width="3" height="1"/><rect x="19" y="3" style="fill:#2D5E2D;" width="1" height="1"/><rect x="14" y="4" style="fill:#2D5E2D;" width="1" height="1"/><rect x="15" y="4" style="fill:#FF6B6B;" width="3" height="1"/><rect x="18" y="4" style="fill:#5CB85C;" width="2" height="1"/><rect x="20" y="4" style="fill:#2D5E2D;" width="1" height="1"/><rect x="13" y="5" style="fill:#2D5E2D;" width="1" height="1"/><rect x="14" y="5" style="fill:#FF6B6B;" width="3" height="1"/><rect x="17" y="5" style="fill:#5CB85C;" width="1" height="1"/><rect x="18" y="5" style="fill:#98E898;" width="2" height="1"/><rect x="20" y="5" style="fill:#2D5E2D;" width="1" height="1"/><rect x="12" y="6" style="fill:#2D5E2D;" width="1" height="1"/><rect x="13" y="6" style="fill:#FF6B6B;" width="3" height="1"/><rect x="16" y="6" style="fill:#5CB85C;" width="2" height="1"/><rect x="18" y="6" style="fill:#98E898;" width="2" height="1"/><rect x="20" y="6" style="fill:#2D5E2D;" width="1" height="1"/><rect x="11" y="7" style="fill:#2D5E2D;" width="1" height="1"/><rect x="12" y="7" style="fill:#FF6B6B;" width="3" height="1"/><rect x="15" y="7" style="fill:#5CB85C;" width="1" height="1"/><rect x="16" y="7" style="fill:#98E898;" width="2" height="1"/><rect x="18" y="7" style="fill:#5CB85C;" width="2" height="1"/><rect x="20" y="7" style="fill:#2D5E2D;" width="1" height="1"/><rect x="11" y="8" style="fill:#2D5E2D;" width="1" height="1"/><rect x="12" y="8" style="fill:#FF6B6B;" width="3" height="1"/><rect x="15" y="8" style="fill:#5CB85C;" width="2" height="1"/><rect x="17" y="8" style="fill:#98E898;" width="2" height="1"/><rect x="19" y="8" style="fill:#5CB85C;" width="1" height="1"/><rect x="20" y="8" style="fill:#2D5E2D;" width="1" height="1"/><rect x="11" y="9" style="fill:#2D5E2D;" width="1" height="1"/><rect x="12" y="9" style="fill:#FF6B6B;" width="3" height="1"/><rect x="15" y="9" style="fill:#5CB85C;" width="1" height="1"/><rect x="16" y="9" style="fill:#98E898;" width="2" height="1"/><rect x="18" y="9" style="fill:#5CB85C;" width="2" height="1"/><rect x="20" y="9" style="fill:#2D5E2D;" width="1" height="1"/><rect x="10" y="10" style="fill:#2D5E2D;" width="1" height="1"/><rect x="11" y="10" style="fill:#5CB85C;" width="2" height="1"/><rect x="13" y="10" style="fill:#98E898;" width="2" height="1"/><rect x="15" y="10" style="fill:#5CB85C;" width="2" height="1"/><rect x="17" y="10" style="fill:#98E898;" width="2" height="1"/><rect x="19" y="10" style="fill:#5CB85C;" width="1" height="1"/><rect x="20" y="10" style="fill:#2D5E2D;" width="1" height="1"/><rect x="9" y="11" style="fill:#2D5E2D;" width="1" height="1"/><rect x="10" y="11" style="fill:#5CB85C;" width="1" height="1"/><rect x="11" y="11" style="fill:#98E898;" width="2" height="1"/><rect x="13" y="11" style="fill:#5CB85C;" width="2" height="1"/><rect x="15" y="11" style="fill:#98E898;" width="2" height="1"/><rect x="17" y="11" style="fill:#5CB85C;" width="2" height="1"/><rect x="19" y="11" style="fill:#98E898;" width="1" height="1"/><rect x="20" y="11" style="fill:#2D5E2D;" width="1" height="1"/><rect x="9" y="12" style="fill:#2D5E2D;" width="1" height="3"/><rect x="10" y="12" style="fill:#5CB85C;" width="2" height="1"/><rect x="12" y="12" style="fill:#98E898;" width="2" height="1"/><rect x="14" y="12" style="fill:#5CB85C;" width="2" height="1"/><rect x="16" y="12" style="fill:#98E898;" width="2" height="1"/><rect x="18" y="12" style="fill:#5CB85C;" width="2" height="1"/><rect x="20" y="12" style="fill:#2D5E2D;" width="1" height="3"/><rect x="10" y="13" style="fill:#5CB85C;" width="1" height="1"/><rect x="11" y="13" style="fill:#98E898;" width="2" height="1"/><rect x="13" y="13" style="fill:#5CB85C;" width="2" height="1"/><rect x="15" y="13" style="fill:#98E898;" width="2" height="1"/><rect x="17" y="13" style="fill:#5CB85C;" width="2" height="1"/><rect x="19" y="13" style="fill:#98E898;" width="1" height="1"/><rect x="10" y="14" style="fill:#5CB85C;" width="2" height="1"/><rect x="12" y="14" style="fill:#98E898;" width="2" height="1"/><rect x="14" y="14" style="fill:#5CB85C;" width="2" height="1"/><rect x="16" y="14" style="fill:#98E898;" width="2" height="1"/><rect x="18" y="14" style="fill:#5CB85C;" width="2" height="1"/><rect x="9" y="15" style="fill:#2D5E2D;" width="12" height="1"/><rect x="10" y="16" style="fill:#2D5E2D;" width="10" height="1"/><rect x="12" y="17" style="fill:#2D5E2D;" width="6" height="1"/><rect x="14" y="18" style="fill:#2D5E2D;" width="2" height="3"/><rect x="13" y="21" style="fill:#2D5E2D;" width="4" height="1"/></svg>