<svg viewBox="0 0 32 32" xmlns="http://www.w3.org/2000/svg"><rect x="12" y="10" width="8" height="1" fill="#000000"/><rect x="11" y="11" width="1" height="1" fill="#000000"/><rect x="12" y="11" width="8" height="1" fill="#ff0000"/><rect x="20" y="11" width="1" height="1" fill="#000000"/><rect x="10" y="12" width="1" height="3" fill="#000000"/><rect x="11" y="12" width="10" height="3" fill="#ff0000"/><rect x="21" y="12" width="1" height="3" fill="#000000"/><rect x="19" y="13" width="2" height="2" fill="#ffffff"/><rect x="20" y="14" width="1" height="1" fill="#000000"/><rect x="10" y="15" width="1" height="5" fill="#000000"/><rect x="11" y="15" width="10" height="5" fill="#ff0000"/><rect x="21" y="15" width="1" height="5" fill="#000000"/><rect x="11" y="20" width="1" height="1" fill="#000000"/><rect x="12" y="20" width="8" height="1" fill="#ff0000"/><rect x="20" y="20" width="1" height="1" fill="#000000"/><rect x="12" y="21" width="8" height="1" fill="#000000"/></svg>