<svg width="32" height="32" viewBox="0 0 32 32" xmlns="http://www.w3.org/2000/svg" shape-rendering="crispEdges">
<!-- Outline and Hair -->
<rect x="11" y="2" width="10" height="3" fill="#333"/>
<rect x="10" y="5" width="12" height="1" fill="#333"/>
<rect x="9" y="6" width="14" height="1" fill="#000"/>
<rect x="8" y="7" width="16" height="1" fill="#000"/>

<!-- Headband (Yellow) -->
<rect x="11" y="4" width="10" height="1" fill="#ffc300"/>

<!-- Skin (Neck/Back of Head) -->
<rect x="9" y="7" width="14" height="6" fill="#f7a685"/>
<rect x="8" y="8" width="16" height="4" fill="#f7a685"/>

<!-- Neck -->
<rect x="14" y="13" width="4" height="1" fill="#f7a685"/>

<!-- Uniform Top (Outline) -->
<rect x="13" y="14" width="6" height="1" fill="#000"/>
<rect x="11" y="15" width="10" height="1" fill="#000"/>
<rect x="9" y="16" width="14" height="1" fill="#000"/>
<rect x="7" y="17" width="18" height="1" fill="#000"/>

<!-- Uniform Main Body (Purple) -->
<rect x="12" y="15" width="8" height="1" fill="#6f2da8"/>
<rect x="10" y="16" width="12" height="1" fill="#6f2da8"/>
<rect x="8" y="17" width="16" height="1" fill="#6f2da8"/>
<rect x="6" y="18" width="20" height="5" fill="#6f2da8"/>

<!-- Arms (Skin) - Bent slightly -->
<rect x="3" y="19" width="3" height="3" fill="#f7a685"/>
<rect x="26" y="19" width="3" height="3" fill="#f7a685"/>

<!-- Uniform Bottom/Shorts (Purple) -->
<rect x="8" y="23" width="16" height="1" fill="#000"/>
<rect x="7" y="24" width="18" height="1" fill="#000"/>
<rect x="6" y="25" width="20" height="1" fill="#000"/>
<rect x="8" y="23" width="16" height="3" fill="#6f2da8"/>

<!-- Legs (Outline) -->
<rect x="10" y="26" width="4" height="1" fill="#000"/>
<rect x="18" y="26" width="4" height="1" fill="#000"/>

<!-- Legs (Skin) -->
<rect x="11" y="27" width="2" height="3" fill="#f7a685"/>
<rect x="19" y="27" width="2" height="3" fill="#f7a685"/>

<!-- Shoes -->
<rect x="10" y="30" width="4" height="2" fill="#fff"/>
<rect x="18" y="30" width="4" height="2" fill="#fff"/>
<rect x="10" y="31" width="4" height="1" fill="#000"/>
<rect x="18" y="31" width="4" height="1" fill="#000"/>

</svg>