<svg width="32" height="32" viewBox="0 0 32 32" xmlns="http://www.w3.org/2000/svg" shape-rendering="crispEdges">
<!-- Head outline and hair (Left Profile) -->
<rect x="10" y="3" width="10" height="1" fill="#333"/>
<rect x="9" y="4" width="13" height="1" fill="#000"/>
<rect x="8" y="5" width="15" height="1" fill="#000"/>

<!-- Headband -->
<rect x="11" y="4" width="9" height="1" fill="#ffc300"/>

<!-- Face and Skin -->
<rect x="10" y="5" width="12" height="6" fill="#f7a685"/>
<rect x="9" y="6" width="14" height="4" fill="#f7a685"/>

<!-- Beard/Jawline -->
<rect x="9" y="10" width="14" height="1" fill="#333"/>
<rect x="9" y="11" width="13" height="1" fill="#333"/>
<rect x="10" y="12" width="10" height="1" fill="#333"/>

<!-- Features (Eye, looking left) -->
<rect x="12" y="7" width="2" height="1" fill="#000"/>

<!-- Neck -->
<rect x="12" y="13" width="3" height="1" fill="#f7a685"/>

<!-- Body Outline -->
<rect x="11" y="14" width="7" height="1" fill="#000"/>
<rect x="9" y="15" width="11" height="1" fill="#000"/>
<rect x="7" y="16" width="15" height="1" fill="#000"/>
<rect x="5" y="17" width="18" height="1" fill="#000"/>

<!-- Uniform Body (Purple) -->
<rect x="10" y="15" width="9" height="1" fill="#6f2da8"/>
<rect x="8" y="16" width="13" height="1" fill="#6f2da8"/>
<rect x="6" y="17" width="16" height="5" fill="#6f2da8"/>

<!-- Right Arm (Pulled back slightly) -->
<rect x="22" y="18" width="3" height="3" fill="#f7a685"/>

<!-- Dribbling Arm (Left side, pointing down) -->
<rect x="3" y="19" width="3" height="3" fill="#f7a685"/>
<rect x="4" y="22" width="1" height="3" fill="#f7a685"/>

<!-- Basketball (Under left hand) -->
<rect x="2" y="24" width="4" height="4" fill="#ff8800"/>
<rect x="3" y="25" width="2" height="2" fill="#000"/>

<!-- Shorts/Legs -->
<rect x="8" y="22" width="14" height="1" fill="#000"/>
<rect x="7" y="23" width="16" height="1" fill="#000"/>
<rect x="8" y="23" width="14" height="3" fill="#6f2da8"/>

<!-- Legs (Walking stance) -->
<rect x="9" y="26" width="3" height="4" fill="#f7a685"/>
<rect x="14" y="27" width="3" height="3" fill="#f7a685"/>

<!-- Shoes -->
<rect x="8" y="30" width="4" height="2" fill="#fff"/>
<rect x="13" y="30" width="4" height="2" fill="#fff"/>
<rect x="8" y="31" width="4" height="1" fill="#000"/>
<rect x="13" y="31" width="4" height="1" fill="#000"/>

</svg>