<svg width="32" height="32" viewBox="0 0 32 32" xmlns="http://www.w3.org/2000/svg" shape-rendering="crispEdges"><rect width="32" height="32" fill="none"/><path d="M8 2h16v1h1v1h1v16h-1v1h-1v1H8v-1H7v-1H6V4h1V3h1V2z" fill="#000000"/><path d="M8 3h16v1h1v16h-1v1H8v-1H7V4h1V3z" fill="#ffff00"/><path d="M10 5h3v3h-3V5zm11 2h2v2h-2V7zm-9 6h2v2h-2v-2zm7 3h3v3h-3v-3zM9 17h2v2H9v-2zm14-8h1v1h-1V9z" fill="#cc9900"/><path d="M8 21h16v1H8v-1z" fill="#ffffff"/><path d="M9 22h14v5H9v-5z" fill="#8b4513"/><path d="M9 22h14v1H9v-1z" fill="#000000"/><path d="M12 27h2v3h-2v-3zm6 0h2v3h-2v-3z" fill="#ffff00"/><path d="M11 29h4v1h-4v-1zm6 0h4v1h-4v-1z" fill="#ffffff"/><path d="M10 30h5v2h-5v-2zm6 0h5v2h-5v-2z" fill="#000000"/></svg>