<svg width="32" height="32" viewBox="0 0 32 32" xmlns="http://www.w3.org/2000/svg" shape-rendering="crispEdges"><rect width="32" height="32" fill="none"/><path d="M8 2h16v1h1v1h1v16h-1v1h-1v1H8v-1H7v-1H6V4h1V3h1V2z" fill="#000000"/><path d="M8 3h16v1h1v16h-1v1H8v-1H7V4h1V3z" fill="#ffff00"/><path d="M9 4h2v2H9V4zm12 0h2v2h-2V4zM9 16h2v2H9v-2zm12 0h2v2h-2v-2z" fill="#cc9900"/><path d="M10 6h6v6h-6V6zm8 0h6v6h-6V6z" fill="#ffffff"/><path d="M13 8h2v2h-2V8zm8 0h2v2h-2V8z" fill="#33ccff"/><path d="M14 9h1v1h-1V9zm8 0h1v1h-1V9z" fill="#000000"/><path d="M16 13h2v2h-2v-2z" fill="#ffff00"/><path d="M11 16h10v1H11v-1zm1 1h3v2h-3v-2zm5 0h3v2h-3v-2z" fill="#ffffff"/><path d="M8 21h16v1h-1v1h-2v-1h-3v1h-2v-1h-3v1h-2v-1H8v-1z" fill="#ffffff"/><path d="M15 21h2v1h1v1h-1v1h-2v-1h-1v-1h1v-1z" fill="#ff0000"/><path d="M9 23h14v4H9v-4z" fill="#8b4513"/><path d="M9 23h14v1H9v-1z" fill="#000000"/><path d="M12 27h2v3h-2v-3zm6 0h2v3h-2v-3z" fill="#ffff00"/><path d="M11 29h4v1h-4v-1zm6 0h4v1h-4v-1z" fill="#ffffff"/><path d="M10 30h5v2h-5v-2zm6 0h5v2h-5v-2z" fill="#000000"/><path d="M6 12h2v2H6v-2zm0 5h2v2H6v-2zm20-5h2v2h-2v-2zm0 5h2v2h-2v-2z" fill="#000000"/><path d="M4 13h2v5H4v-5zm22 0h2v5h-2v-5z" fill="#ffff00"/></svg>