<svg width="32" height="32" viewBox="0 0 32 32" xmlns="http://www.w3.org/2000/svg" shape-rendering="crispEdges"><rect width="32" height="32" fill="none"/><path d="M10 2h12v1h1v1h1v16h-1v1h-1v1h-12v-1h-1v-1h-1V4h1V3h1V2z" fill="#000000"/><path d="M10 3h12v1h1v16h-1v1h-12v-1h-1V4h1V3z" fill="#ffff00"/><path d="M6 12h3v3H6v-3z" fill="#ffff00"/><path d="M6 12h1v3H6v-3zm2 0h1v3H8v-3z" fill="#000000"/><path d="M11 6h3v6h-3V6z" fill="#ffffff"/><path d="M11 8h2v2h-2V8z" fill="#33ccff"/><path d="M11 9h1v1h-1V9z" fill="#000000"/><path d="M11 5h2v1h-2V5zm10 3h2v2h-2V8zm-9 9h2v2h-2v-2zm7 2h2v2h-2v-2z" fill="#cc9900"/><path d="M10 21h12v1H10v-1z" fill="#ffffff"/><path d="M11 22h10v5H11v-5z" fill="#8b4513"/><path d="M11 22h10v1H11v-1z" fill="#000000"/><path d="M13 27h3v3h-3v-3z" fill="#ffff00"/><path d="M12 29h5v1h-5v-1z" fill="#ffffff"/><path d="M10 30h7v2h-7v-2z" fill="#000000"/><path d="M14 14h4v6h-4v-6z" fill="#ffff00"/><path d="M14 14h4v1h-4v-1zm0 5h4v1h-4v-1zm-1-5h1v6h-1v-6zm4 0h1v6h-1v-6z" fill="#000000"/></svg>