<svg xmlns="http://www.w3.org/2000/svg" viewBox="0 0 32 32" shape-rendering="crispEdges"><rect x="6" y="2" width="20" height="20" fill="#000"/><rect x="6" y="22" width="20" height="5" fill="#000"/><rect x="7" y="3" width="18" height="18" fill="#FFD700"/><rect x="8" y="5" width="2" height="2" fill="#B8860B"/><rect x="23" y="16" width="2" height="2" fill="#B8860B"/><rect x="7" y="19" width="1" height="1" fill="#B8860B"/><rect x="10" y="7" width="5" height="5" fill="#FFF"/><rect x="17" y="7" width="5" height="5" fill="#FFF"/><rect x="12" y="8" width="2" height="2" fill="#00F"/><rect x="19" y="8" width="2" height="2" fill="#00F"/><rect x="13" y="9" width="1" height="1" fill="#000"/><rect x="20" y="9" width="1" height="1" fill="#000"/><rect x="15" y="12" width="2" height="3" fill="#FFD700"/><rect x="14" y="13" width="1" height="2" fill="#B8860B"/><rect x="17" y="13" width="1" height="2" fill="#B8860B"/><rect x="15" y="15" width="2" height="1" fill="#B8860B"/><rect x="11" y="17" width="10" height="1" fill="#000"/><rect x="11" y="16" width="1" height="1" fill="#000"/><rect x="20" y="16" width="1" height="1" fill="#000"/><rect x="13" y="18" width="2" height="2" fill="#FFF"/><rect x="17" y="18" width="2" height="2" fill="#FFF"/><rect x="7" y="21" width="18" height="1" fill="#FFF"/><rect x="15" y="21" width="2" height="3" fill="#F00"/><rect x="7" y="23" width="18" height="3" fill="#8B4513"/><rect x="7" y="23" width="18" height="1" fill="#000"/><rect x="11" y="27" width="2" height="3" fill="#FFD700"/><rect x="19" y="27" width="2" height="3" fill="#FFD700"/><rect x="10" y="29" width="4" height="1" fill="#FFF"/><rect x="18" y="29" width="4" height="1" fill="#FFF"/><rect x="10" y="30" width="4" height="2" fill="#000"/><rect x="18" y="30" width="4" height="2" fill="#000"/></svg>