<svg xmlns="http://www.w3.org/2000/svg" viewBox="0 0 32 32" shape-rendering="crispEdges"><rect x="11" y="2" width="10" height="20" fill="#000"/><rect x="11" y="22" width="10" height="5" fill="#000"/><rect x="12" y="3" width="8" height="18" fill="#FFD700"/><rect x="17" y="5" width="2" height="2" fill="#B8860B"/><rect x="13" y="16" width="2" height="2" fill="#B8860B"/><rect x="9" y="13" width="3" height="3" fill="#FFD700"/><rect x="11" y="13" width="1" height="3" fill="#B8860B"/><rect x="9" y="13" width="2" height="1" fill="#B8860B"/><rect x="9" y="15" width="2" height="1" fill="#B8860B"/><rect x="8" y="14" width="1" height="1" fill="#B8860B"/><rect x="12" y="7" width="3" height="5" fill="#FFF"/><rect x="12" y="8" width="2" height="2" fill="#00F"/><rect x="12" y="9" width="1" height="1" fill="#000"/><rect x="12" y="21" width="8" height="1" fill="#FFF"/><rect x="12" y="23" width="8" height="3" fill="#8B4513"/><rect x="12" y="23" width="8" height="1" fill="#000"/><rect x="14" y="27" width="3" height="3" fill="#FFD700"/><rect x="13" y="29" width="5" height="1" fill="#FFF"/><rect x="12" y="30" width="6" height="2" fill="#000"/></svg>