<svg xmlns="http://www.w3.org/2000/svg" viewBox="0 0 32 32" width="32" height="32"><rect x="7" y="2" width="18" height="1" fill="#000000"/><rect x="6" y="3" width="1" height="14" fill="#000000"/><rect x="25" y="3" width="1" height="14" fill="#000000"/><rect x="7" y="3" width="18" height="14" fill="#FCE100"/><rect x="10" y="5" width="3" height="3" fill="#C4A000"/><rect x="19" y="4" width="2" height="2" fill="#C4A000"/><rect x="14" y="10" width="4" height="4" fill="#C4A000"/><rect x="8" y="12" width="2" height="2" fill="#C4A000"/><rect x="21" y="13" width="3" height="3" fill="#C4A000"/><rect x="7" y="17" width="18" height="1" fill="#000000"/><rect x="7" y="18" width="18" height="3" fill="#FFFFFF"/><rect x="7" y="21" width="18" height="1" fill="#000000"/><rect x="7" y="22" width="18" height="4" fill="#996633"/><rect x="6" y="18" width="1" height="4" fill="#000000"/><rect x="25" y="18" width="1" height="4" fill="#000000"/><rect x="7" y="26" width="18" height="1" fill="#000000"/><rect x="10" y="27" width="2" height="2" fill="#FCE100"/><rect x="20" y="27" width="2" height="2" fill="#FCE100"/><rect x="9" y="29" width="4" height="1" fill="#FFFFFF"/><rect x="19" y="29" width="4" height="1" fill="#FFFFFF"/><rect x="9" y="30" width="4" height="2" fill="#000000"/><rect x="19" y="30" width="4" height="2" fill="#000000"/><rect x="4" y="18" width="2" height="5" fill="#FCE100"/><rect x="4" y="17" width="2" height="1" fill="#FFFFFF"/><rect x="4" y="23" width="2" height="1" fill="#FFFFFF"/><rect x="26" y="18" width="2" height="5" fill="#FCE100"/><rect x="26" y="17" width="2" height="1" fill="#FFFFFF"/><rect x="26" y="23" width="2" height="1" fill="#FFFFFF"/></svg>