<svg xmlns="http://www.w3.org/2000/svg" viewBox="0 0 32 32" width="32" height="32"><rect x="10" y="2" width="12" height="1" fill="#000000"/><rect x="9" y="3" width="1" height="14" fill="#000000"/><rect x="22" y="3" width="1" height="14" fill="#000000"/><rect x="10" y="3" width="12" height="14" fill="#FCE100"/><rect x="12" y="5" width="2" height="2" fill="#C4A000"/><rect x="18" y="8" width="3" height="3" fill="#C4A000"/><rect x="11" y="12" width="2" height="2" fill="#C4A000"/><rect x="6" y="7" width="4" height="6" fill="#FFFFFF"/><rect x="6" y="7" width="1" height="6" fill="#000000"/><rect x="9" y="7" width="1" height="6" fill="#000000"/><rect x="7" y="9" width="2" height="2" fill="#3399FF"/><rect x="8" y="10" width="1" height="1" fill="#000000"/><rect x="5" y="13" width="5" height="1" fill="#000000"/><rect x="5" y="14" width="2" height="1" fill="#FF3300"/><rect x="7" y="14" width="3" height="1" fill="#FCE100"/><rect x="10" y="17" width="12" height="1" fill="#000000"/><rect x="10" y="18" width="12" height="3" fill="#FFFFFF"/><rect x="9" y="18" width="1" height="4" fill="#000000"/><rect x="22" y="18" width="1" height="4" fill="#000000"/><rect x="10" y="21" width="12" height="1" fill="#000000"/><rect x="10" y="22" width="12" height="4" fill="#996633"/><rect x="10" y="26" width="12" height="1" fill="#000000"/><rect x="13" y="27" width="2" height="2" fill="#FCE100"/><rect x="12" y="29" width="4" height="1" fill="#FFFFFF"/><rect x="11" y="30" width="6" height="2" fill="#000000"/><rect x="16" y="18" width="4" height="2" fill="#FCE100"/><rect x="15" y="17" width="5" height="1" fill="#FFFFFF"/></svg>