<svg xmlns="http://www.w3.org/2000/svg" viewBox="0 0 32 32" width="32" height="32"><rect x="8" y="2" width="16" height="1" fill="#000000"/><rect x="6" y="3" width="2" height="1" fill="#000000"/><rect x="24" y="3" width="2" height="1" fill="#000000"/><rect x="4" y="4" width="2" height="2" fill="#000000"/><rect x="26" y="4" width="2" height="2" fill="#000000"/><rect x="2" y="6" width="2" height="20" fill="#000000"/><rect x="28" y="6" width="2" height="20" fill="#000000"/><rect x="4" y="26" width="2" height="2" fill="#000000"/><rect x="26" y="26" width="2" height="2" fill="#000000"/><rect x="6" y="28" width="2" height="1" fill="#000000"/><rect x="24" y="28" width="2" height="1" fill="#000000"/><rect x="8" y="29" width="16" height="1" fill="#000000"/><rect x="4" y="6" width="24" height="20" fill="#FFFF00"/><rect x="6" y="4" width="20" height="2" fill="#FFFF00"/><rect x="6" y="26" width="20" height="2" fill="#FFFF00"/><rect x="8" y="3" width="16" height="1" fill="#FFFF00"/><rect x="8" y="28" width="16" height="1" fill="#FFFF00"/><rect x="24" y="12" width="2" height="2" fill="#000000"/></svg>