<svg xmlns="http://www.w3.org/2000/svg" viewBox="0 0 32 32" shape-rendering="crispEdges"><rect x="13" y="4" width="6" height="1" fill="#222034"/><rect x="11" y="5" width="2" height="1" fill="#222034"/><rect x="13" y="5" width="6" height="1" fill="#4b692f"/><rect x="19" y="5" width="2" height="1" fill="#222034"/><rect x="10" y="6" width="1" height="1" fill="#222034"/><rect x="11" y="6" width="1" height="1" fill="#4b692f"/><rect x="12" y="6" width="1" height="1" fill="#6abe30"/><rect x="13" y="6" width="6" height="1" fill="#4b692f"/><rect x="19" y="6" width="2" height="1" fill="#6abe30"/><rect x="21" y="6" width="1" height="1" fill="#222034"/><rect x="9" y="7" width="1" height="4" fill="#222034"/><rect x="10" y="7" width="2" height="1" fill="#6abe30"/><rect x="12" y="7" width="8" height="1" fill="#4b692f"/><rect x="20" y="7" width="2" height="1" fill="#6abe30"/><rect x="22" y="7" width="1" height="4" fill="#222034"/><rect x="10" y="8" width="12" height="1" fill="#4b692f"/><rect x="10" y="9" width="1" height="1" fill="#4b692f"/><rect x="11" y="9" width="1" height="1" fill="#6abe30"/><rect x="12" y="9" width="6" height="1" fill="#4b692f"/><rect x="18" y="9" width="2" height="1" fill="#6abe30"/><rect x="20" y="9" width="2" height="1" fill="#4b692f"/><rect x="10" y="10" width="12" height="1" fill="#4b692f"/><rect x="9" y="11" width="1" height="13" fill="#222034"/><rect x="10" y="11" width="3" height="1" fill="#6abe30"/><rect x="13" y="11" width="6" height="1" fill="#4b692f"/><rect x="19" y="11" width="1" height="1" fill="#6abe30"/><rect x="20" y="11" width="2" height="1" fill="#4b692f"/><rect x="22" y="11" width="1" height="13" fill="#222034"/><rect x="10" y="12" width="12" height="1" fill="#4b692f"/><rect x="10" y="13" width="1" height="1" fill="#4b692f"/><rect x="11" y="13" width="2" height="1" fill="#6abe30"/><rect x="13" y="13" width="6" height="1" fill="#4b692f"/><rect x="19" y="13" width="1" height="1" fill="#6abe30"/><rect x="20" y="13" width="2" height="1" fill="#4b692f"/><rect x="10" y="14" width="12" height="1" fill="#4b692f"/><rect x="10" y="15" width="2" height="1" fill="#6abe30"/><rect x="12" y="15" width="6" height="1" fill="#4b692f"/><rect x="18" y="15" width="2" height="1" fill="#6abe30"/><rect x="20" y="15" width="2" height="1" fill="#4b692f"/><rect x="10" y="16" width="12" height="1" fill="#4b692f"/><rect x="10" y="17" width="1" height="1" fill="#4b692f"/><rect x="11" y="17" width="1" height="1" fill="#6abe30"/><rect x="12" y="17" width="8" height="1" fill="#4b692f"/><rect x="20" y="17" width="2" height="1" fill="#6abe30"/><rect x="10" y="18" width="12" height="1" fill="#4b692f"/><rect x="10" y="19" width="2" height="1" fill="#6abe30"/><rect x="12" y="19" width="6" height="1" fill="#4b692f"/><rect x="18" y="19" width="2" height="1" fill="#6abe30"/><rect x="20" y="19" width="2" height="1" fill="#4b692f"/><rect x="10" y="20" width="12" height="1" fill="#4b692f"/><rect x="10" y="21" width="1" height="1" fill="#4b692f"/><rect x="11" y="21" width="3" height="1" fill="#6abe30"/><rect x="14" y="21" width="6" height="1" fill="#4b692f"/><rect x="20" y="21" width="1" height="1" fill="#6abe30"/><rect x="21" y="21" width="1" height="1" fill="#4b692f"/><rect x="10" y="22" width="12" height="1" fill="#4b692f"/><rect x="10" y="23" width="2" height="1" fill="#6abe30"/><rect x="12" y="23" width="8" height="1" fill="#4b692f"/><rect x="20" y="23" width="2" height="1" fill="#6abe30"/><rect x="10" y="24" width="1" height="1" fill="#222034"/><rect x="11" y="24" width="10" height="1" fill="#4b692f"/><rect x="21" y="24" width="1" height="1" fill="#222034"/><rect x="11" y="25" width="1" height="1" fill="#222034"/><rect x="12" y="25" width="2" height="1" fill="#6abe30"/><rect x="14" y="25" width="4" height="1" fill="#4b692f"/><rect x="18" y="25" width="2" height="1" fill="#6abe30"/><rect x="20" y="25" width="1" height="1" fill="#222034"/><rect x="12" y="26" width="8" height="1" fill="#222034"/></svg>