<svg xmlns="http://www.w3.org/2000/svg" viewBox="0 0 32 32" shape-rendering="crispEdges"><rect x="13" y="4" width="6" height="1" fill="#222034"/><rect x="11" y="5" width="2" height="1" fill="#222034"/><rect x="13" y="5" width="6" height="1" fill="#6abe30"/><rect x="19" y="5" width="2" height="1" fill="#222034"/><rect x="10" y="6" width="1" height="1" fill="#222034"/><rect x="11" y="6" width="2" height="1" fill="#6abe30"/><rect x="13" y="6" width="6" height="1" fill="#5fcde4"/><rect x="19" y="6" width="2" height="1" fill="#6abe30"/><rect x="21" y="6" width="1" height="1" fill="#222034"/><rect x="9" y="7" width="1" height="4" fill="#222034"/><rect x="10" y="7" width="3" height="1" fill="#6abe30"/><rect x="13" y="7" width="1" height="1" fill="#5fcde4"/><rect x="14" y="7" width="1" height="1" fill="#222034"/><rect x="15" y="7" width="2" height="1" fill="#5fcde4"/><rect x="17" y="7" width="1" height="1" fill="#222034"/><rect x="18" y="7" width="1" height="1" fill="#5fcde4"/><rect x="19" y="7" width="3" height="1" fill="#6abe30"/><rect x="22" y="7" width="1" height="4" fill="#222034"/><rect x="10" y="8" width="2" height="1" fill="#6abe30"/><rect x="12" y="8" width="1" height="1" fill="#4b692f"/><rect x="13" y="8" width="1" height="1" fill="#5fcde4"/><rect x="14" y="8" width="4" height="2" fill="#ffffff"/><rect x="18" y="8" width="1" height="1" fill="#5fcde4"/><rect x="19" y="8" width="1" height="1" fill="#4b692f"/><rect x="20" y="8" width="2" height="1" fill="#6abe30"/><rect x="10" y="9" width="2" height="1" fill="#6abe30"/><rect x="12" y="9" width="2" height="2" fill="#ffffff"/><rect x="15" y="9" width="1" height="1" fill="#222034"/><rect x="16" y="9" width="1" height="1" fill="#ffffff"/><rect x="17" y="9" width="1" height="1" fill="#222034"/><rect x="18" y="9" width="2" height="2" fill="#ffffff"/><rect x="20" y="9" width="2" height="1" fill="#6abe30"/><rect x="10" y="10" width="2" height="1" fill="#4b692f"/><rect x="14" y="10" width="4" height="1" fill="#ffffff"/><rect x="20" y="10" width="2" height="1" fill="#4b692f"/><rect x="9" y="11" width="1" height="13" fill="#222034"/><rect x="10" y="11" width="1" height="1" fill="#6abe30"/><rect x="11" y="11" width="2" height="1" fill="#a8e76e"/><rect x="13" y="11" width="6" height="1" fill="#ffffff"/><rect x="19" y="11" width="2" height="1" fill="#a8e76e"/><rect x="21" y="11" width="1" height="1" fill="#6abe30"/><rect x="22" y="11" width="1" height="13" fill="#222034"/><rect x="10" y="12" width="2" height="1" fill="#4b692f"/><rect x="12" y="12" width="8" height="1" fill="#a8e76e"/><rect x="20" y="12" width="2" height="1" fill="#4b692f"/><rect x="10" y="13" width="1" height="1" fill="#6abe30"/><rect x="11" y="13" width="2" height="1" fill="#4b692f"/><rect x="13" y="13" width="1" height="1" fill="#a8e76e"/><rect x="14" y="13" width="1" height="1" fill="#222034"/><rect x="15" y="13" width="1" height="1" fill="#ffffff"/><rect x="16" y="13" width="1" height="1" fill="#222034"/><rect x="17" y="13" width="1" height="1" fill="#ffffff"/><rect x="18" y="13" width="1" height="1" fill="#222034"/><rect x="19" y="13" width="1" height="1" fill="#a8e76e"/><rect x="20" y="13" width="1" height="1" fill="#4b692f"/><rect x="21" y="13" width="1" height="1" fill="#6abe30"/><rect x="10" y="14" width="2" height="1" fill="#4b692f"/><rect x="12" y="14" width="1" height="1" fill="#a8e76e"/><rect x="13" y="14" width="1" height="1" fill="#222034"/><rect x="14" y="14" width="4" height="1" fill="#ffffff"/><rect x="18" y="14" width="1" height="1" fill="#222034"/><rect x="19" y="14" width="1" height="1" fill="#a8e76e"/><rect x="20" y="14" width="2" height="1" fill="#4b692f"/><rect x="10" y="15" width="1" height="1" fill="#4b692f"/><rect x="11" y="15" width="1" height="1" fill="#6abe30"/><rect x="12" y="15" width="1" height="1" fill="#a8e76e"/><rect x="13" y="15" width="1" height="1" fill="#222034"/><rect x="14" y="15" width="1" height="1" fill="#ffffff"/><rect x="15" y="15" width="1" height="1" fill="#222034"/><rect x="16" y="15" width="1" height="1" fill="#ffffff"/><rect x="17" y="15" width="1" height="1" fill="#222034"/><rect x="18" y="15" width="1" height="1" fill="#ffffff"/><rect x="19" y="15" width="1" height="1" fill="#222034"/><rect x="20" y="15" width="1" height="1" fill="#6abe30"/><rect x="21" y="15" width="1" height="1" fill="#4b692f"/><rect x="10" y="16" width="2" height="1" fill="#4b692f"/><rect x="12" y="16" width="8" height="1" fill="#a8e76e"/><rect x="20" y="16" width="2" height="1" fill="#4b692f"/><rect x="10" y="17" width="2" height="1" fill="#6abe30"/><rect x="12" y="17" width="2" height="1" fill="#4b692f"/><rect x="14" y="17" width="4" height="1" fill="#a8e76e"/><rect x="18" y="17" width="2" height="1" fill="#4b692f"/><rect x="20" y="17" width="2" height="1" fill="#6abe30"/><rect x="10" y="18" width="12" height="1" fill="#4b692f"/><rect x="10" y="19" width="1" height="1" fill="#4b692f"/><rect x="11" y="19" width="1" height="1" fill="#6abe30"/><rect x="12" y="19" width="8" height="1" fill="#4b692f"/><rect x="20" y="19" width="1" height="1" fill="#6abe30"/><rect x="21" y="19" width="1" height="1" fill="#4b692f"/><rect x="10" y="20" width="12" height="1" fill="#4b692f"/><rect x="10" y="21" width="2" height="1" fill="#6abe30"/><rect x="12" y="21" width="8" height="1" fill="#4b692f"/><rect x="20" y="21" width="2" height="1" fill="#6abe30"/><rect x="10" y="22" width="2" height="1" fill="#4b692f"/><rect x="12" y="22" width="1" height="1" fill="#6abe30"/><rect x="13" y="22" width="6" height="1" fill="#4b692f"/><rect x="19" y="22" width="1" height="1" fill="#6abe30"/><rect x="20" y="22" width="2" height="1" fill="#4b692f"/><rect x="10" y="23" width="12" height="1" fill="#4b692f"/><rect x="10" y="24" width="1" height="1" fill="#222034"/><rect x="11" y="24" width="10" height="1" fill="#4b692f"/><rect x="21" y="24" width="1" height="1" fill="#222034"/><rect x="11" y="25" width="1" height="1" fill="#222034"/><rect x="12" y="25" width="1" height="1" fill="#6abe30"/><rect x="13" y="25" width="6" height="1" fill="#4b692f"/><rect x="19" y="25" width="1" height="1" fill="#6abe30"/><rect x="20" y="25" width="1" height="1" fill="#222034"/><rect x="12" y="26" width="8" height="1" fill="#222034"/></svg>