<svg xmlns="http://www.w3.org/2000/svg" viewBox="0 0 32 32" shape-rendering="crispEdges"><rect x="14" y="4" width="4" height="1" fill="#222034"/><rect x="13" y="5" width="1" height="1" fill="#222034"/><rect x="14" y="5" width="3" height="1" fill="#4b692f"/><rect x="17" y="5" width="1" height="1" fill="#6abe30"/><rect x="18" y="5" width="1" height="1" fill="#222034"/><rect x="12" y="6" width="1" height="4" fill="#222034"/><rect x="13" y="6" width="1" height="1" fill="#6abe30"/><rect x="14" y="6" width="2" height="1" fill="#4b692f"/><rect x="16" y="6" width="1" height="1" fill="#6abe30"/><rect x="17" y="6" width="2" height="1" fill="#5fcde4"/><rect x="19" y="6" width="1" height="2" fill="#222034"/><rect x="13" y="7" width="2" height="1" fill="#4b692f"/><rect x="15" y="7" width="2" height="1" fill="#6abe30"/><rect x="17" y="7" width="2" height="1" fill="#5fcde4"/><rect x="13" y="8" width="2" height="1" fill="#6abe30"/><rect x="15" y="8" width="1" height="1" fill="#4b692f"/><rect x="16" y="8" width="1" height="1" fill="#a8e76e"/><rect x="17" y="8" width="2" height="2" fill="#ffffff"/><rect x="19" y="8" width="1" height="1" fill="#5fcde4"/><rect x="13" y="9" width="3" height="1" fill="#4b692f"/><rect x="16" y="9" width="1" height="1" fill="#222034"/><rect x="19" y="9" width="1" height="1" fill="#ffffff"/><rect x="20" y="9" width="1" height="1" fill="#222034"/><rect x="12" y="10" width="1" height="15" fill="#222034"/><rect x="13" y="10" width="2" height="1" fill="#6abe30"/><rect x="15" y="10" width="1" height="1" fill="#4b692f"/><rect x="16" y="10" width="1" height="1" fill="#a8e76e"/><rect x="17" y="10" width="3" height="1" fill="#ffffff"/><rect x="20" y="10" width="1" height="15" fill="#222034"/><rect x="13" y="11" width="1" height="1" fill="#4b692f"/><rect x="14" y="11" width="2" height="1" fill="#6abe30"/><rect x="16" y="11" width="1" height="1" fill="#4b692f"/><rect x="17" y="11" width="3" height="1" fill="#a8e76e"/><rect x="13" y="12" width="4" height="1" fill="#4b692f"/><rect x="17" y="12" width="3" height="1" fill="#a8e76e"/><rect x="13" y="13" width="1" height="1" fill="#4b692f"/><rect x="14" y="13" width="2" height="1" fill="#6abe30"/><rect x="16" y="13" width="1" height="1" fill="#a8e76e"/><rect x="17" y="13" width="2" height="1" fill="#222034"/><rect x="19" y="13" width="1" height="1" fill="#a8e76e"/><rect x="13" y="14" width="2" height="1" fill="#4b692f"/><rect x="15" y="14" width="1" height="1" fill="#6abe30"/><rect x="16" y="14" width="1" height="1" fill="#4b692f"/><rect x="17" y="14" width="2" height="1" fill="#ffffff"/><rect x="19" y="14" width="1" height="1" fill="#a8e76e"/><rect x="13" y="15" width="4" height="1" fill="#4b692f"/><rect x="17" y="15" width="3" height="1" fill="#a8e76e"/><rect x="13" y="16" width="1" height="1" fill="#4b692f"/><rect x="14" y="16" width="2" height="1" fill="#6abe30"/><rect x="16" y="16" width="2" height="1" fill="#4b692f"/><rect x="18" y="16" width="2" height="1" fill="#a8e76e"/><rect x="13" y="17" width="4" height="1" fill="#4b692f"/><rect x="17" y="17" width="1" height="1" fill="#a8e76e"/><rect x="18" y="17" width="2" height="1" fill="#4b692f"/><rect x="13" y="18" width="7" height="1" fill="#4b692f"/><rect x="13" y="19" width="1" height="1" fill="#4b692f"/><rect x="14" y="19" width="2" height="1" fill="#6abe30"/><rect x="16" y="19" width="4" height="1" fill="#4b692f"/><rect x="13" y="20" width="7" height="1" fill="#4b692f"/><rect x="13" y="21" width="2" height="1" fill="#4b692f"/><rect x="15" y="21" width="2" height="1" fill="#6abe30"/><rect x="17" y="21" width="3" height="1" fill="#4b692f"/><rect x="13" y="22" width="7" height="1" fill="#4b692f"/><rect x="13" y="23" width="2" height="1" fill="#4b692f"/><rect x="15" y="23" width="1" height="1" fill="#6abe30"/><rect x="16" y="23" width="4" height="1" fill="#4b692f"/><rect x="13" y="24" width="7" height="1" fill="#4b692f"/><rect x="13" y="25" width="1" height="1" fill="#222034"/><rect x="14" y="25" width="5" height="1" fill="#4b692f"/><rect x="19" y="25" width="1" height="1" fill="#222034"/><rect x="14" y="26" width="5" height="1" fill="#222034"/></svg>