<svg viewBox="0 0 32 32" xmlns="http://www.w3.org/2000/svg" shape-rendering="crispEdges">
    <!-- Head and Neck -->
    <g fill="#A0522D">
        <!-- Neck -->
        <rect x="15" y="10" width="2" height="2"/>
        <!-- Face/Head Shape -->
        <rect x="11" y="4" width="10" height="7"/>
        <rect x="10" y="5" width="12" height="5"/>
        <rect x="9" y="6" width="14" height="3"/>
    </g>
    <!-- Hair/Top of Head -->
    <g fill="#333333">
        <rect x="12" y="3" width="8" height="1"/>
        <rect x="11" y="4" width="10" height="1"/>
    </g>
    <!-- Facial Features (Cute style) -->
    <g fill="#000000">
        <!-- Eyes -->
        <rect x="13" y="7" width="1" height="1"/>
        <rect x="18" y="7" width="1" height="1"/>
        <!-- Mouth/Smile -->
        <rect x="15" y="9" width="2" height="1"/>
    </g>
    
    <!-- Jersey (Gold) -->
    <g fill="#FFD700">
        <rect x="11" y="12" width="10" height="9"/>
        <rect x="10" y="13" width="12" height="7"/>
    </g>
    <!-- Jersey Trim (Purple) -->
    <g fill="#800080">
        <rect x="13" y="12" width="6" height="1"/>
    </g>

    <!-- Arms and Hands (Skin tone) -->
    <g fill="#A0522D">
        <!-- Arms -->
        <rect x="9" y="13" width="1" height="4"/>
        <rect x="22" y="13" width="1" height="4"/>
        <rect x="8" y="14" width="1" height="2"/>
        <rect x="23" y="14" width="1" height="2"/>
        <!-- Hands holding ball -->
        <rect x="11" y="20" width="1" height="2"/>
        <rect x="20" y="20" width="1" height="2"/>
    </g>

    <!-- Basketball (Orange) -->
    <g fill="#FF8C00">
        <rect x="13" y="20" width="6" height="6"/>
        <rect x="12" y="21" width="8" height="4"/>
        <rect x="14" y="19" width="4" height="8"/>
    </g>

    <!-- Shorts (Purple) -->
    <g fill="#800080">
        <rect x="12" y="21" width="8" height="2"/>
    </g>

    <!-- Legs and Shoes -->
    <g fill="#A0522D">
        <rect x="13" y="23" width="2" height="5"/>
        <rect x="17" y="23" width="2" height="5"/>
    </g>
    <g fill="#FFFFFF">
        <!-- Socks -->
        <rect x="13" y="28" width="2" height="1"/>
        <rect x="17" y="28" width="2" height="1"/>
    </g>
    <g fill="#000000">
        <!-- Shoes -->
        <rect x="12" y="29" width="4" height="2"/>
        <rect x="16" y="29" width="4" height="2"/>
    </g>
</svg>