<svg width="32" height="32" viewBox="0 0 32 32" xmlns="http://www.w3.org/2000/svg" shape-rendering="crispEdges"></* Outline */><path d="M13 6h6v1h2v1h2v1h2v2h1v3h1v6h-1v2h-1v2h-1v2h-2v2h-4v-1h-4v1h-4v-2h-2v-2h-1v-2h-1v-2h-1v-6h1v-3h1v-2h2v-1h2v-1h2v-1z" fill="#191028"/></* Body */><path d="M13 7h6v1h-6zM11 8h10v1h2v1h2v2h1v3h1v9h-1v2h-1v2h-1v2h-2v1h-14v-1h-2v-2h-1v-2h-1v-2h-1v-9h1v-3h1v-2h2v-1h2v-1z" fill="#434F7D"/></* Highlights/Crown Back */><path d="M14 7h4v1h-4zM12 9h8v2h-8zM11 11h2v3h-2zM19 11h2v3h-2zM14 8h4v1h-4zM13 11h6v3h-6zM12 14h8v2h-8zM11 16h2v2h-2zM19 16h2v2h-2z" fill="#6A80BC"/></* Limbs Outline */><path d="M9 19h1v3h-1zM22 19h1v3h-1zM11 27h3v1h-3zM18 27h3v1h-3z" fill="#191028"/></* Limbs Fill */><path d="M10 20h1v2h-1zM21 20h1v2h-1zM12 26h2v1h-2zM19 26h2v1h-2z" fill="#434F7D"/></svg>