<svg width="32" height="32" viewBox="0 0 32 32" xmlns="http://www.w3.org/2000/svg" shape-rendering="crispEdges"></* Outline */><path d="M13 6h6v1h2v1h2v1h2v2h1v3h1v6h-1v2h-1v2h-1v2h-2v2h-4v-1h-4v1h-4v-2h-2v-2h-1v-2h-1v-2h-1v-6h1v-3h1v-2h2v-1h2v-1h2v-1z" fill="#191028"/></* Body */><path d="M13 7h6v1h-6zM11 8h10v1h2v1h2v2h1v3h1v4h-1v2h-1v2h-1v2h-2v1h-14v-1h-2v-2h-1v-2h-1v-2h-1v-4h1v-3h1v-2h2v-1h2v-1z" fill="#434F7D"/></* Highlights/Crown */><path d="M14 7h1v1h-1zM17 7h1v1h-1zM12 9h1v1h-1zM19 9h1v1h-1zM14 9h4v1h-4zM15 8h2v1h-2zM11 11h2v2h-2z" fill="#6A80BC"/></* Eyes/Face */><path d="M14 16h1v2h-1zM17 16h1v2h-1zM15 20h2v1h-2z" fill="#F8EED1"/></* Limbs Outline */><path d="M9 19h1v3h-1zM22 19h1v3h-1zM11 27h3v1h-3zM18 27h3v1h-3z" fill="#191028"/></* Limbs Fill */><path d="M10 20h1v2h-1zM21 20h1v2h-1zM12 26h2v1h-2zM19 26h2v1h-2z" fill="#434F7D"/></svg>