<svg width="32" height="32" viewBox="0 0 32 32" xmlns="http://www.w3.org/2000/svg" shape-rendering="crispEdges"></* Outline */><path d="M14 6h5v1h2v1h2v1h1v3h1v5h-1v3h-1v3h-2v2h-4v-1h-4v1h-3v-2h-2v-3h-1v-8h1v-3h1v-1h2v-1h3v-1z" fill="#191028"/></* Body */><path d="M14 7h5v1h-5zM12 8h9v1h2v1h1v3h1v3h-1v3h-1v3h-2v2h-13v-1h-1v-3h-1v-3h-1v-7h1v-3h1v-1h2v-1z" fill="#434F7D"/></* Crown Side */><path d="M15 7h3v1h-3zM13 9h4v1h-4zM16 8h2v1h-2z" fill="#6A80BC"/></* Eye Side */><path d="M10 16h1v2h-1z" fill="#F8EED1"/></* Arm Side Outline */><path d="M14 19h3v3h-1v-1h-2z" fill="#191028"/></* Arm Side Fill */><path d="M14 20h2v1h-2zM16 21h1v1h-1z" fill="#434F7D"/></* Feet Side Outline */><path d="M10 27h4v1h-4zM15 26h4v1h-1v1h-3z" fill="#191028"/></* Feet Side Fill */><path d="M11 26h3v1h-3zM16 25h3v1h-3z" fill="#434F7D"/></svg>