<svg width="32" height="32" viewBox="0 0 32 32" xmlns="http://www.w3.org/2000/svg" shape-rendering="crispEdges"></* Outline */><path d="M13 6h5v1h-3v1h-2v1h-1v3h-1v8h1v3h2v3h3v2h4v-1h4v1h2v-2h1v-3h1v-5h-1v-3h-1v-1h-2v-1h-2v-1z" fill="#191028"/></* Body */><path d="M13 7h5v1h-5zM11 8h9v1h-2v1h-1v3h-1v7h1v3h1v3h2v2h13v-1h1v-3h1v-3h1v-7h-1v-3h-1v-1h-2v-1z" fill="#434F7D"/></* Crown Side */><path d="M14 7h3v1h-3zM15 9h4v1h-4zM14 8h2v1h-2z" fill="#6A80BC"/></* Eye Side */><path d="M21 16h1v2h-1z" fill="#F8EED1"/></* Arm Side Outline */><path d="M15 19h3v3h1v-1h2z" fill="#191028"/></* Arm Side Fill */><path d="M16 20h2v1h-2zM15 21h1v1h-1z" fill="#434F7D"/></* Feet Side Outline */><path d="M18 27h4v1h-4zM13 26h4v1h1v1h-3z" fill="#191028"/></* Feet Side Fill */><path d="M18 26h3v1h-3zM13 25h3v1h-3z" fill="#434F7D"/></svg>