<svg xmlns="http://www.w3.org/2000/svg" viewBox="0 0 32 32" shape-rendering="crispEdges">
<rect x="11" y="6" width="10" height="19" fill="#FFFF80"/>
<rect x="10" y="8" width="12" height="15" fill="#FFFF80"/>
<rect x="9" y="10" width="14" height="11" fill="#FFFF80"/>
<path fill="#000000" d="M16,5h-4v1h-1v1h-1v1h-1v2h-1v11h1v2h1v1h1v1h1v1h10v-1h1v-1h1v-1h1v-2h1v-11h-1v-2h-1v-1h-1v-1h-1v-1h-4z"/>
<rect x="12" y="5" width="8" height="1" fill="#000000"/>
<rect x="10" y="15" width="1" height="1" fill="#000000"/>
<rect x="21" y="15" width="1" height="1" fill="#000000"/>
<rect x="15" y="22" width="2" height="1" fill="#000000"/>
<rect x="12" y="25" width="1" height="1" fill="#000000"/>
<rect x="19" y="25" width="1" height="1" fill="#000000"/>
<rect x="11" y="26" width="3" height="1" fill="#FF8000"/>
<rect x="18" y="26" width="3" height="1" fill="#FF8000"/>
</svg>