<svg width="32" height="32" viewBox="0 0 32 32" xmlns="http://www.w3.org/2000/svg" shape-rendering="crispEdges">
    <!-- Head and Hair (Back View) -->
    <rect x="10" y="4" width="12" height="1" fill="#1A1A1A"/>
    <rect x="9" y="5" width="14" height="1" fill="#1A1A1A"/>
    <rect x="8" y="6" width="16" height="2" fill="#1A1A1A"/>
    <!-- Neck/Skin -->
    <rect x="11" y="8" width="10" height="2" fill="#8B4513"/>

    <!-- Arms (Skin) -->
    <rect x="6" y="14" width="2" height="4" fill="#8B4513"/>
    <rect x="24" y="14" width="2" height="4" fill="#8B4513"/>
    
    <!-- Jersey (Purple/Gold) -->
    <rect x="9" y="10" width="14" height="3" fill="#4B0082"/>
    <rect x="8" y="13" width="16" height="3" fill="#4B0082"/>
    <rect x="7" y="16" width="18" height="3" fill="#4B0082"/>
    <rect x="6" y="19" width="20" height="4" fill="#4B0082"/>
    
    <!-- Shoulder Trim -->
    <rect x="7" y="16" width="1" height="1" fill="#FFD700"/>
    <rect x="24" y="16" width="1" height="1" fill="#FFD700"/>
    
    <!-- Number 6 (Large White Back Number) -->
    <rect x="12" y="17" width="6" height="1" fill="#FFFFFF"/>
    <rect x="12" y="18" width="1" height="3" fill="#FFFFFF"/>
    <rect x="15" y="19" width="5" height="1" fill="#FFFFFF"/>
    <rect x="19" y="18" width="1" height="1" fill="#FFFFFF"/>
    
    <!-- Shorts -->
    <rect x="7" y="23" width="18" height="3" fill="#4B0082"/>
    <rect x="8" y="26" width="4" height="1" fill="#FFD700"/>
    <rect x="20" y="26" width="4" height="1" fill="#FFD700"/>
    
    <!-- Legs/Shoes -->
    <rect x="10" y="27" width="3" height="4" fill="#8B4513"/>
    <rect x="19" y="27" width="3" height="4" fill="#8B4513"/>
    <rect x="10" y="31" width="3" height="1" fill="#000000"/>
    <rect x="19" y="31" width="3" height="1" fill="#000000"/>
</svg>