<svg width="32" height="32" viewBox="0 0 32 32" xmlns="http://www.w3.org/2000/svg" shape-rendering="crispEdges">
    <!-- Head and Hair (Right Profile) -->
    <rect x="12" y="4" width="10" height="1" fill="#1A1A1A"/>
    <rect x="11" y="5" width="12" height="1" fill="#1A1A1A"/>
    <rect x="10" y="6" width="14" height="1" fill="#1A1A1A"/>
    <!-- Skin/Face -->
    <rect x="12" y="7" width="12" height="1" fill="#8B4513"/>
    <rect x="12" y="8" width="13" height="1" fill="#8B4513"/>
    <rect x="13" y="9" width="12" height="1" fill="#8B4513"/>
    <rect x="14" y="10" width="11" height="1" fill="#8B4513"/>
    <!-- Beard/Chin -->
    <rect x="14" y="11" width="10" height="1" fill="#1A1A1A"/>
    <rect x="16" y="12" width="7" height="1" fill="#1A1A1A"/>
    <!-- Eye -->
    <rect x="22" y="9" width="1" height="1" fill="#000000"/>

    <!-- Torso/Jersey -->
    <rect x="12" y="13" width="10" height="1" fill="#4B0082"/>
    <rect x="12" y="14" width="11" height="2" fill="#4B0082"/>
    <rect x="12" y="16" width="12" height="3" fill="#4B0082"/>
    <rect x="11" y="19" width="14" height="4" fill="#4B0082"/>
    <!-- Gold Trim -->
    <rect x="21" y="14" width="1" height="1" fill="#FFD700"/>

    <!-- Arm (Forward motion) -->
    <rect x="10" y="17" width="3" height="1" fill="#8B4513"/>
    <rect x="11" y="18" width="2" height="2" fill="#8B4513"/>
    <rect x="13" y="20" width="1" height="1" fill="#8B4513"/>

    <!-- Shorts -->
    <rect x="12" y="23" width="11" height="3" fill="#4B0082"/>
    <rect x="21" y="26" width="2" height="1" fill="#FFD700"/>

    <!-- Legs (Walking position) -->
    <rect x="19" y="26" width="3" height="5" fill="#8B4513"/>
    <rect x="12" y="27" width="3" height="4" fill="#8B4513"/>
    <rect x="19" y="31" width="3" height="1" fill="#000000"/>
    <rect x="12" y="31" width="3" height="1" fill="#000000"/>
</svg>