<svg viewBox="0 0 32 32" xmlns="http://www.w3.org/2000/svg"><rect x="8" y="6" width="16" height="16" fill="#FFFF00"/><rect x="8" y="6" width="16" height="1" fill="#000000"/><rect x="8" y="21" width="16" height="1" fill="#000000"/><rect x="8" y="7" width="1" height="14" fill="#000000"/><rect x="23" y="7" width="1" height="14" fill="#000000"/><rect x="10" y="8" width="2" height="2" fill="#FFFFA5"/><rect x="19" y="12" width="2" height="2" fill="#FFFFA5"/><rect x="12" y="17" width="2" height="2" fill="#FFFFA5"/><rect x="8" y="22" width="16" height="3" fill="#FFFFFF"/><rect x="8" y="22" width="1" height="3" fill="#000000"/><rect x="23" y="22" width="1" height="3" fill="#000000"/><rect x="8" y="25" width="16" height="4" fill="#A52A2A"/><rect x="8" y="25" width="16" height="1" fill="#000000"/><rect x="8" y="28" width="16" height="1" fill="#000000"/><rect x="8" y="26" width="1" height="2" fill="#000000"/><rect x="23" y="26" width="1" height="2" fill="#000000"/><rect x="5" y="14" width="3" height="2" fill="#FFFF00"/><rect x="24" y="14" width="3" height="2" fill="#FFFF00"/><rect x="10" y="29" width="2" height="2" fill="#FFFF00"/><rect x="20" y="29" width="2" height="2" fill="#FFFF00"/><rect x="10" y="31" width="2" height="1" fill="#000000"/><rect x="20" y="31" width="2" height="1" fill="#000000"/></svg>