<svg viewBox="0 0 32 32" xmlns="http://www.w3.org/2000/svg"><rect x="11" y="6" width="10" height="16" fill="#FFFF00"/><rect x="11" y="6" width="10" height="1" fill="#000000"/><rect x="11" y="21" width="10" height="1" fill="#000000"/><rect x="11" y="7" width="1" height="14" fill="#000000"/><rect x="20" y="7" width="1" height="14" fill="#000000"/><rect x="12" y="9" width="3" height="4" fill="#FFFFFF"/><rect x="13" y="10" width="1" height="2" fill="#0000FF"/><rect x="14" y="11" width="1" height="1" fill="#000000"/><rect x="9" y="13" width="3" height="3" fill="#FFFF00"/><rect x="12" y="16" width="5" height="1" fill="#000000"/><rect x="12" y="17" width="2" height="2" fill="#FFFFFF"/><rect x="11" y="22" width="10" height="3" fill="#FFFFFF"/><rect x="11" y="22" width="1" height="3" fill="#000000"/><rect x="20" y="22" width="1" height="3" fill="#000000"/><rect x="11" y="25" width="10" height="4" fill="#A52A2A"/><rect x="11" y="25" width="10" height="1" fill="#000000"/><rect x="11" y="28" width="10" height="1" fill="#000000"/><rect x="11" y="26" width="1" height="2" fill="#000000"/><rect x="20" y="26" width="1" height="2" fill="#000000"/><rect x="13" y="29" width="2" height="2" fill="#FFFF00"/><rect x="13" y="31" width="3" height="1" fill="#000000"/></svg>