<svg width="32" height="32" viewBox="0 0 32 32" xmlns="http://www.w3.org/2000/svg" shape-rendering="crispEdges"><rect x="12" y="2" width="8" height="1" fill="#000000"/><rect x="11" y="3" width="1" height="8" fill="#000000"/><rect x="12" y="3" width="8" height="8" fill="#5c3c1e"/><rect x="20" y="3" width="1" height="8" fill="#000000"/><rect x="12" y="11" width="8" height="1" fill="#000000"/><rect x="13" y="11" width="6" height="1" fill="#5c3c1e"/><rect x="12" y="12" width="8" height="1" fill="#000000"/><rect x="8" y="13" width="4" height="1" fill="#000000"/><rect x="12" y="13" width="8" height="1" fill="#ffd700"/><rect x="20" y="13" width="4" height="1" fill="#000000"/><rect x="8" y="14" width="1" height="6" fill="#000000"/><rect x="9" y="14" width="3" height="6" fill="#5c3c1e"/><rect x="12" y="14" width="8" height="7" fill="#4b0082"/><rect x="20" y="14" width="3" height="6" fill="#5c3c1e"/><rect x="23" y="14" width="1" height="6" fill="#000000"/><rect x="14" y="15" width="4" height="4" fill="#ffd700"/><rect x="8" y="20" width="4" height="1" fill="#000000"/><rect x="20" y="20" width="4" height="1" fill="#000000"/><rect x="8" y="21" width="1" height="1" fill="#000000"/><rect x="9" y="21" width="14" height="1" fill="#4b0082"/><rect x="23" y="21" width="1" height="1" fill="#000000"/><rect x="9" y="22" width="1" height="3" fill="#000000"/><rect x="10" y="22" width="12" height="3" fill="#4b0082"/><rect x="22" y="22" width="1" height="3" fill="#000000"/><rect x="10" y="25" width="1" height="1" fill="#000000"/><rect x="11" y="25" width="10" height="1" fill="#ffd700"/><rect x="21" y="25" width="1" height="1" fill="#000000"/><rect x="11" y="26" width="3" height="1" fill="#000000"/><rect x="14" y="26" width="4" height="1" fill="#ffffff"/><rect x="18" y="26" width="3" height="1" fill="#000000"/><rect x="11" y="27" width="1" height="3" fill="#000000"/><rect x="12" y="27" width="2" height="3" fill="#5c3c1e"/><rect x="14" y="27" width="1" height="3" fill="#000000"/><rect x="17" y="27" width="1" height="3" fill="#000000"/><rect x="18" y="27" width="2" height="3" fill="#5c3c1e"/><rect x="20" y="27" width="1" height="3" fill="#000000"/><rect x="10" y="30" width="4" height="1" fill="#000000"/><rect x="18" y="30" width="4" height="1" fill="#000000"/><rect x="10" y="31" width="1" height="1" fill="#000000"/><rect x="11" y="31" width="3" height="1" fill="#ffffff"/><rect x="18" y="31" width="3" height="1" fill="#ffffff"/><rect x="21" y="31" width="1" height="1" fill="#000000"/></svg>