<svg width="32" height="32" viewBox="0 0 32 32" xmlns="http://www.w3.org/2000/svg" shape-rendering="crispEdges"><rect x="13" y="2" width="6" height="1" fill="#000000"/><rect x="19" y="3" width="1" height="8" fill="#000000"/><rect x="13" y="3" width="6" height="7" fill="#5c3c1e"/><rect x="12" y="3" width="1" height="5" fill="#000000"/><rect x="18" y="6" width="1" height="1" fill="#000000"/><rect x="12" y="8" width="1" height="1" fill="#5c3c1e"/><rect x="11" y="8" width="1" height="4" fill="#000000"/><rect x="12" y="10" width="7" height="2" fill="#000000"/><rect x="13" y="11" width="6" height="1" fill="#5c3c1e"/><rect x="12" y="12" width="7" height="1" fill="#000000"/><rect x="12" y="13" width="7" height="8" fill="#4b0082"/><rect x="15" y="13" width="1" height="8" fill="#ffd700"/><rect x="19" y="13" width="1" height="8" fill="#000000"/><rect x="11" y="13" width="1" height="8" fill="#000000"/><rect x="15" y="14" width="3" height="4" fill="#5c3c1e"/><rect x="11" y="21" width="9" height="1" fill="#000000"/><rect x="12" y="22" width="7" height="3" fill="#4b0082"/><rect x="15" y="22" width="1" height="3" fill="#ffd700"/><rect x="19" y="22" width="1" height="3" fill="#000000"/><rect x="11" y="22" width="1" height="3" fill="#000000"/><rect x="11" y="25" width="9" height="1" fill="#000000"/><rect x="12" y="25" width="7" height="1" fill="#ffd700"/><rect x="16" y="26" width="3" height="4" fill="#5c3c1e"/><rect x="19" y="26" width="1" height="5" fill="#000000"/><rect x="15" y="26" width="1" height="4" fill="#000000"/><rect x="12" y="26" width="3" height="1" fill="#000000"/><rect x="13" y="27" width="2" height="3" fill="#5c3c1e"/><rect x="12" y="27" width="1" height="4" fill="#000000"/><rect x="13" y="30" width="3" height="1" fill="#000000"/><rect x="16" y="31" width="3" height="1" fill="#ffffff"/><rect x="13" y="31" width="2" height="1" fill="#ffffff"/></svg>