<svg width="32" height="32" viewBox="0 0 32 32" xmlns="http://www.w3.org/2000/svg" shape-rendering="crispEdges"><rect x="8" y="6" width="16" height="20" fill="#F7D51D"/><rect x="7" y="6" width="1" height="20" fill="#B58A00"/><rect x="24" y="6" width="1" height="20" fill="#B58A00"/><rect x="8" y="5" width="16" height="1" fill="#B58A00"/><rect x="8" y="26" width="16" height="1" fill="#B58A00"/><rect x="11" y="10" width="2" height="3" fill="#000000"/><rect x="19" y="10" width="2" height="3" fill="#000000"/><rect x="6" y="14" width="2" height="4" fill="#F7D51D"/><rect x="5" y="14" width="1" height="4" fill="#B58A00"/><rect x="24" y="14" width="2" height="4" fill="#F7D51D"/><rect x="26" y="14" width="1" height="4" fill="#B58A00"/><rect x="10" y="26" width="4" height="3" fill="#F7D51D"/><rect x="9" y="26" width="1" height="3" fill="#B58A00"/><rect x="14" y="26" width="1" height="3" fill="#B58A00"/><rect x="10" y="29" width="4" height="1" fill="#B58A00"/><rect x="18" y="26" width="4" height="3" fill="#F7D51D"/><rect x="17" y="26" width="1" height="3" fill="#B58A00"/><rect x="22" y="26" width="1" height="3" fill="#B58A00"/><rect x="18" y="29" width="4" height="1" fill="#B58A00"/></svg>