<svg width="32" height="32" viewBox="0 0 32 32" xmlns="http://www.w3.org/2000/svg" shape-rendering="crispEdges"><rect x="12" y="6" width="8" height="20" fill="#F7D51D"/><rect x="11" y="6" width="1" height="20" fill="#B58A00"/><rect x="20" y="6" width="1" height="20" fill="#B58A00"/><rect x="12" y="5" width="8" height="1" fill="#B58A00"/><rect x="12" y="26" width="8" height="1" fill="#B58A00"/><rect x="18" y="10" width="2" height="3" fill="#000000"/><rect x="16" y="14" width="2" height="4" fill="#F7D51D"/><rect x="15" y="14" width="1" height="4" fill="#B58A00"/><rect x="16" y="26" width="3" height="3" fill="#F7D51D"/><rect x="15" y="26" width="1" height="3" fill="#B58A00"/><rect x="19" y="26" width="1" height="3" fill="#B58A00"/><rect x="16" y="29" width="3" height="1" fill="#B58A00"/><rect x="13" y="26" width="3" height="3" fill="#F7D51D"/><rect x="12" y="26" width="1" height="3" fill="#B58A00"/><rect x="13" y="29" width="3" height="1" fill="#B58A00"/></svg>