<svg viewBox="0 0 32 32" xmlns="http://www.w3.org/2000/svg" shape-rendering="crispEdges"><rect x="11" y="28" width="10" height="4" fill="#783F04"/><rect x="10" y="27" width="12" height="1" fill="#000000"/><rect x="10" y="23" width="12" height="4" fill="#783F04"/><rect x="9" y="17" width="14" height="6" fill="#783F04"/><rect x="10" y="16" width="12" height="1" fill="#783F04"/><rect x="10" y="7" width="12" height="9" fill="#5E9C3C"/><rect x="9" y="9" width="14" height="6" fill="#5E9C3C"/><rect x="11" y="6" width="10" height="1" fill="#5E9C3C"/><rect x="7" y="10" width="2" height="6" fill="#5E9C3C"/><rect x="23" y="10" width="2" height="6" fill="#5E9C3C"/><rect x="6" y="11" width="1" height="4" fill="#5E9C3C"/><rect x="25" y="11" width="1" height="4" fill="#5E9C3C"/><rect x="8" y="16" width="1" height="11" fill="#000000"/><rect x="23" y="16" width="1" height="11" fill="#000000"/><rect x="10" y="6" width="12" height="1" fill="#000000"/><rect x="9" y="7" width="1" height="2" fill="#000000"/><rect x="22" y="7" width="1" height="2" fill="#000000"/><rect x="8" y="10" width="1" height="6" fill="#000000"/><rect x="23" y="10" width="1" height="6" fill="#000000"/></svg>