<svg viewBox="0 0 32 32" xmlns="http://www.w3.org/2000/svg" shape-rendering="crispEdges"><rect x="11" y="28" width="10" height="4" fill="#783F04"/><rect x="10" y="27" width="12" height="1" fill="#000000"/><rect x="10" y="23" width="12" height="4" fill="#783F04"/><rect x="9" y="17" width="14" height="6" fill="#783F04"/><rect x="11" y="18" width="10" height="4" fill="#FFFFE0"/><rect x="10" y="22" width="12" height="1" fill="#FFFFE0"/><rect x="9" y="21" width="14" height="2" fill="#B45F06"/><rect x="10" y="7" width="12" height="10" fill="#5E9C3C"/><rect x="9" y="9" width="14" height="6" fill="#5E9C3C"/><rect x="11" y="6" width="10" height="1" fill="#5E9C3C"/><rect x="13" y="11" width="1" height="1" fill="#FFFFFF"/><rect x="18" y="11" width="1" height="1" fill="#FFFFFF"/><rect x="13" y="12" width="1" height="1" fill="#999900"/><rect x="18" y="12" width="1" height="1" fill="#999900"/><rect x="13" y="15" width="6" height="1" fill="#000000"/><rect x="7" y="10" width="2" height="6" fill="#5E9C3C"/><rect x="23" y="10" width="2" height="6" fill="#5E9C3C"/><rect x="6" y="11" width="1" height="4" fill="#5E9C3C"/><rect x="25" y="11" width="1" height="4" fill="#5E9C3C"/><rect x="8" y="17" width="16" height="1" fill="#000000"/><rect x="8" y="17" width="1" height="10" fill="#000000"/><rect x="23" y="17" width="1" height="10" fill="#000000"/><rect x="10" y="6" width="12" height="1" fill="#000000"/><rect x="9" y="7" width="1" height="2" fill="#000000"/><rect x="22" y="7" width="1" height="2" fill="#000000"/><rect x="8" y="10" width="1" height="6" fill="#000000"/><rect x="23" y="10" width="1" height="6" fill="#000000"/></svg>