<svg viewBox="0 0 32 32" xmlns="http://www.w3.org/2000/svg" shape-rendering="crispEdges"><rect x="14" y="29" width="8" height="3" fill="#783F04"/><rect x="13" y="27" width="10" height="2" fill="#783F04"/><rect x="13" y="23" width="10" height="4" fill="#783F04"/><rect x="11" y="17" width="12" height="6" fill="#783F04"/><rect x="13" y="19" width="8" height="2" fill="#FFFFE0"/><rect x="13" y="21" width="8" height="2" fill="#B45F06"/><rect x="11" y="9" width="10" height="8" fill="#5E9C3C"/><rect x="10" y="11" width="1" height="4" fill="#5E9C3C"/><rect x="13" y="8" width="8" height="1" fill="#5E9C3C"/><rect x="10" y="10" width="3" height="1" fill="#5E9C3C"/><rect x="8" y="11" width="4" height="4" fill="#5E9C3C"/><rect x="7" y="12" width="1" height="2" fill="#5E9C3C"/><rect x="14" y="12" width="1" height="1" fill="#FFFFFF"/><rect x="14" y="13" width="1" height="1" fill="#999900"/><rect x="11" y="15" width="3" height="1" fill="#000000"/><rect x="11" y="16" width="12" height="1" fill="#000000"/><rect x="22" y="17" width="1" height="10" fill="#000000"/><rect x="10" y="9" width="1" height="7" fill="#000000"/></svg>