<svg width="32" height="32" viewBox="0 0 32 32" xmlns="http://www.w3.org/2000/svg" shape-rendering="crispEdges"><rect width="32" height="32" fill="none"/><path d="M12 3h8v1h2v2h1v2h1v16h-1v2h-1v2h-2v1h-8v-1h-2v-2h-1v-2h-1v-16h1v-2h1v-2h2v-1z" fill="#2E5A28"/><path d="M12 4h8v1h2v2h1v2h-1v-2h-2v-2h-8v2h-2v2h-1v-2h1v-2h2v-1z" fill="#82C775"/><path d="M10 7h12v2h1v16h-1v2h-2v1h-8v-1h-2v-2h-1v-16h1v-2z" fill="#5FA052"/><rect x="11" y="9" width="10" height="2" fill="#9AD7E6"/><rect x="10" y="11" width="4" height="4" fill="#FFFFFF"/><rect x="18" y="11" width="4" height="4" fill="#FFFFFF"/><rect x="12" y="12" width="2" height="2" fill="#000000"/><rect x="20" y="12" width="2" height="2" fill="#000000"/><rect x="11" y="17" width="10" height="1" fill="#000000"/><rect x="11" y="18" width="2" height="1" fill="#FFFFFF"/><rect x="13" y="18" width="2" height="1" fill="#000000"/><rect x="15" y="18" width="2" height="1" fill="#FFFFFF"/><rect x="17" y="18" width="2" height="1" fill="#000000"/><rect x="19" y="18" width="2" height="1" fill="#FFFFFF"/><rect x="11" y="19" width="10" height="1" fill="#000000"/><rect x="14" y="20" width="4" height="2" fill="#000000"/><rect x="15" y="20" width="2" height="3" fill="#8AE4A4"/><rect x="7" y="18" width="3" height="2" fill="#D6B78B"/><rect x="22" y="18" width="3" height="2" fill="#D6B78B"/><rect x="11" y="29" width="3" height="3" fill="#D6B78B"/><rect x="18" y="29" width="3" height="3" fill="#D6B78B"/></svg>