<svg width="32" height="32" viewBox="0 0 32 32" xmlns="http://www.w3.org/2000/svg" shape-rendering="crispEdges"><rect width="32" height="32" fill="none"/><path d="M13 3h5v1h1v2h1v4h1v12h-1v4h-1v2h-1v1h-5v-1h-1v-2h-1v-2h-1v-16h1v-2h1v-2h1v-1z" fill="#2E5A28"/><path d="M13 4h5v1h1v2h1v4h1v12h-1v4h-1v2h-1v1h-5v-1h-1v-2h-1v-2h-1v-16h1v-2h1v-2h1v-1z" fill="#5FA052"/><rect x="17" y="9" width="2" height="2" fill="#9AD7E6"/><rect x="18" y="11" width="2" height="4" fill="#FFFFFF"/><rect x="19" y="12" width="1" height="2" fill="#000000"/><rect x="17" y="17" width="3" height="1" fill="#000000"/><rect x="17" y="18" width="1" height="1" fill="#FFFFFF"/><rect x="18" y="18" width="1" height="1" fill="#000000"/><rect x="19" y="18" width="1" height="1" fill="#FFFFFF"/><rect x="17" y="19" width="3" height="1" fill="#000000"/><rect x="17" y="20" width="2" height="1" fill="#8AE4A4"/><rect x="13" y="18" width="3" height="2" fill="#D6B78B"/><rect x="16" y="29" width="3" height="3" fill="#D6B78B"/><rect x="13" y="28" width="3" height="2" fill="#D6B78B"/></svg>