<svg xmlns="http://www.w3.org/2000/svg" viewBox="0 0 32 32" style="image-rendering: crisp-edges;">
  <!-- Character is Yellow (#FFCC00), Beak/Feet Orange (#FF8800), Outline Black (#000000) -->
  
  <!-- Body Fill -->
  <path fill="#FFCC00" d="M11 15h10v9H11z"/>
  <!-- Head Fill -->
  <path fill="#FFCC00" d="M12 8h7v7H12z"/>
  
  <!-- Beak Fill (Prominent V-shape, facing Right) -->
  <path fill="#FF8800" d="M19 11h2v1h-2zM21 10h2v1h-2zM23 9h2v1h-2z"/>
  
  <!-- Outline -->
  <path fill="#000000" d="M11 7h8v1H11zM10 8h1v7H10zM19 8h1v3h-1zM20 11h1v1h-1zM21 10h1v1h-1zM22 9h1v1h-1zM23 8h1v1h-1zM24 8h1v2h-1zM25 9v1h-1zM11 15h1v1H11zM10 16h1v8H10zM21 16h1v8H21zM11 24h10v1H11z"/>
  
  <!-- Bottom Beak/Neck connection -->
  <path fill="#000000" d="M19 13h1v2H19zM20 15h1v1H20z"/>
  
  <!-- Eyes -->
  <rect x="16" y="10" width="1" height="1" fill="#000000"/>
  
  <!-- Wings (stick arm interpretation, visible side) -->
  <rect x="19" y="18" width="4" height="1" fill="#000000"/>
  
  <!-- Legs/Feet (Orange, slightly staggered) -->
  <rect x="14" y="25" width="1" height="2" fill="#FF8800"/>
  <rect x="17" y="25" width="1" height="2" fill="#FF8800"/>
  <rect x="13" y="27" width="3" height="1" fill="#FF8800"/>
  <rect x="16" y="27" width="3" height="1" fill="#FF8800"/>
</svg>