<svg viewBox="0 0 32 32" xmlns="http://www.w3.org/2000/svg">
  <!-- Palette: Skin #FFCC99, Outline #000000 -->
  <!-- Head (Large, centered) -->
  <path d="M10 5h12v1h1v1h1v10h-1v1h-1v1H10v-1H9v-1H8V7h1V6h1z" fill="#000000"/>
  <path d="M10 6h12v1h1v1h1v9h-1v1h-1v1H10v-1H9v-1H9V8h1z" fill="#FFCC99"/>

  <!-- Features -->
  <!-- Eyes (Simple dots, slightly asymmetrical/sad look) -->
  <rect x="12" y="10" width="1" height="1" fill="#000000"/>
  <rect x="18" y="10" width="1" height="1" fill="#000000"/>
  
  <!-- Nose (Prominent center line) -->
  <path d="M15 10v4h1v-4z" fill="#000000"/>

  <!-- Mouth (Sad/Downturned) -->
  <path d="M14 16h4" stroke="#000000" stroke-width="1" stroke-linecap="round" />
  
  <!-- Body (Simple block torso) -->
  <rect x="13" y="19" width="6" height="1" fill="#000000"/>
  <rect x="12" y="20" width="8" height="5" fill="#000000"/>
  <rect x="13" y="21" width="6" height="3" fill="#FFCC99"/>

  <!-- Arms (Simple sticks, slightly up) -->
  <rect x="11" y="20" width="1" height="1" fill="#000000"/>
  <rect x="20" y="20" width="1" height="1" fill="#000000"/>
</svg>