<svg viewBox="0 0 32 32" xmlns="http://www.w3.org/2000/svg">
  <!-- Palette: Skin #FFCC99, Outline #000000 -->
  <!-- Head outline (Profile view, facing left) -->
  <path d="M10 7h10v1h1v1h1v7h-1v1h-1v1h-2v1h-5v-1h-1v-1H9V7h1z" fill="#000000"/>
  <path d="M10 8h10v1h1v7h-1v1h-1v1h-2v-1h-1v-1H10V8z" fill="#FFCC99"/>
  
  <!-- Nose (Sticking out sharply) -->
  <path d="M9 10h1v1h1v1h1v1h-1v-1h-1v-1H9z" fill="#000000"/>
  <path d="M9 11h1v1h1v1h-1z" fill="#FFCC99"/> 
  
  <!-- Eye -->
  <rect x="12" y="10" width="1" height="1" fill="#000000"/>
  
  <!-- Mouth (Small downturned line) -->
  <rect x="11" y="14" width="2" height="1" fill="#000000"/>

  <!-- Body (Torso attached, slightly visible) -->
  <rect x="12" y="19" width="6" height="1" fill="#000000"/>
  <rect x="11" y="20" width="8" height="5" fill="#000000"/>
  <rect x="12" y="21" width="6" height="3" fill="#FFCC99"/>

  <!-- Arm (Left arm visible, slightly raised) -->
  <rect x="10" y="20" width="1" height="1" fill="#000000"/>
</svg>