<svg viewBox="0 0 32 32" xmlns="http://www.w3.org/2000/svg">
  <!-- Palette: Skin #FFCC99, Outline #000000 -->
  <!-- Head outline (Profile view, facing right) -->
  <path d="M12 7h10v1h1v1h1v7h-1v1h-1v1h-2v1h-5v-1h-1v-1H12V7h1z" fill="#000000"/>
  <path d="M12 8h10v1h1v7h-1v1h-1v1h-2v-1h-1v-1H12V8z" fill="#FFCC99"/>
  
  <!-- Nose (Sticking out sharply) -->
  <path d="M23 10h-1v1h-1v1h-1v1h1v-1h1v-1h1z" fill="#000000"/>
  <path d="M23 11h-1v1h-1v1h1z" fill="#FFCC99"/>
  
  <!-- Eye -->
  <rect x="19" y="10" width="1" height="1" fill="#000000"/>
  
  <!-- Mouth (Small downturned line) -->
  <rect x="19" y="14" width="2" height="1" fill="#000000"/>

  <!-- Body (Torso attached, slightly visible) -->
  <rect x="14" y="19" width="6" height="1" fill="#000000"/>
  <rect x="13" y="20" width="8" height="5" fill="#000000"/>
  <rect x="14" y="21" width="6" height="3" fill="#FFCC99"/>

  <!-- Arm (Right arm visible, slightly raised) -->
  <rect x="21" y="20" width="1" height="1" fill="#000000"/>
</svg>