<svg version="1.1" xmlns="http://www.w3.org/2000/svg" width="32" height="32" viewBox="0 0 32 32" shape-rendering="crispEdges"><rect width="32" height="32" fill="none"/><path fill="#000000" d="M13 8h6v1h3v1h2v2h1v2h1v6h-1v2h-1v2h-2v1h-3v1h-6v-1h-2v-1h-1v-2h-2v-2h-1v-6h1v-2h2v-2h1v-1h2v-1z"/><path fill="#FF0000" d="M13 9h6v1h3v1h2v2h1v2h1v6h-1v2h-1v2h-2v1h-3v1h-6v-1h-2v-1h-1v-2h-2v-2h-1v-6h1v-2h2v-2h1v-1h2v-1z"/><path fill="#FFFF00" d="M16 9h3v1h2v1h-5z"/><path fill="#000000" d="M10 15h2v3h-2z"/><path fill="#FFFFFF" d="M10 15h1v1h-1z"/></svg>