<svg xmlns="http://www.w3.org/2000/svg" viewBox="0 0 32 32" shape-rendering="crispEdges">
  <!-- Outline -->
  <rect x="10" y="2" width="12" height="1" fill="#000000"/>
  <rect x="9" y="3" width="14" height="1" fill="#000000"/>
  <rect x="8" y="4" width="16" height="1" fill="#000000"/>
  <rect x="7" y="5" width="18" height="1" fill="#000000"/>
  <rect x="6" y="6" width="20" height="2" fill="#000000"/>
  <rect x="5" y="8" width="22" height="1" fill="#000000"/>
  <!-- Head & Ears -->
  <rect x="7" y="3" width="18" height="6" fill="#FFFFFF"/>
  <rect x="5" y="9" width="2" height="6" fill="#000000"/>
  <rect x="25" y="9" width="2" height="6" fill="#000000"/>
  <!-- Snout/Nose -->
  <rect x="12" y="10" width="8" height="3" fill="#FFFFFF"/>
  <rect x="13" y="13" width="6" height="1" fill="#000000"/>
  <rect x="15" y="11" width="2" height="1" fill="#000000"/>
  <!-- Eyes -->
  <rect x="10" y="7" width="1" height="1" fill="#000000"/>
  <rect x="21" y="7" width="1" height="1" fill="#000000"/>
  
  <!-- Body Outline -->
  <rect x="7" y="14" width="18" height="1" fill="#000000"/>
  <rect x="8" y="15" width="16" height="1" fill="#000000"/>
  <rect x="9" y="16" width="14" height="1" fill="#000000"/>
  
  <!-- Arms/Paws -->
  <rect x="9" y="17" width="2" height="8" fill="#FFFFFF"/>
  <rect x="10" y="17" width="1" height="8" fill="#000000"/>
  <rect x="21" y="17" width="2" height="8" fill="#FFFFFF"/>
  <rect x="21" y="17" width="1" height="8" fill="#000000"/>
  
  <!-- Torso Fill -->
  <rect x="11" y="17" width="10" height="8" fill="#FFFFFF"/>
  <rect x="11" y="25" width="10" height="1" fill="#000000"/>
  
  <!-- Legs/Feet -->
  <rect x="11" y="26" width="3" height="3" fill="#FFFFFF"/>
  <rect x="18" y="26" width="3" height="3" fill="#FFFFFF"/>
  <rect x="10" y="29" width="5" height="1" fill="#000000"/>
  <rect x="17" y="29" width="5" height="1" fill="#000000"/>
</svg>