<svg xmlns="http://www.w3.org/2000/svg" viewBox="0 0 32 32" shape-rendering="crispEdges"><path d="M9 2h14v1H9zM8 3h1v12H8zM23 3h1v12h-1z" fill="#000"/><path d="M9 3h14v12H9z" fill="#ffec00"/><path d="M11 5h2v1h-2zm6 2h2v1h-2zM10 9h2v2h-2zm12 2h1v1h-1zm-6 1h2v2h-2zM19 6h1v1h-1zm-5 8h1v1h-1z" fill="#c2b200"/><path d="M9 15h14v1H9z" fill="#000"/><path d="M9 16h14v2H9z" fill="#fff"/><path d="M9 18h14v1H9zM8 19h1v5H8zM23 19h1v5h-1z" fill="#000"/><path d="M9 19h14v5H9z" fill="#7a4400"/><path d="M9 24h14v1H9z" fill="#000"/><path d="M6 10h2v2H6zM4 12h3v2H4zM24 10h2v2h-2zM25 12h3v2h-3zM11 25h3v3h-3zm7 0h3v3h-3z" fill="#ffec00"/><path d="M6 9h2v1H6zM4 11h2v1H4zM3 12h1v2H3zM4 14h3v1H4zM7 12h1v2H7zM24 9h2v1h-2zM26 11h2v1h-2zM28 12h1v2h-1zM25 14h3v1h-3zM24 12h1v2h-1zM11 24h3v1h-3zM10 25h1v3h-1zM14 25h1v3h-1zM17 24h3v1h-3zM17 25h1v3h-1zM20 25h1v3h-1zM11 28h3v1h-3zm7 0h3v1h-3z" fill="#000"/><path d="M11 29h3v2h-3zm7 0h3v2h-3z" fill="#fff"/><path d="M11 30h3v1h-3zm7 0h3v1h-3z" fill="#f00"/><path d="M10 31h5v1h-5zm6 0h5v1h-5z" fill="#000"/></svg>