<svg xmlns="http://www.w3.org/2000/svg" viewBox="0 0 32 32" shape-rendering="crispEdges"><path d="M12 2h7v1h-7zM11 3h1v12h-1zM19 3h1v12h-1z" fill="#000"/><path d="M12 3h7v12h-7z" fill="#ffec00"/><path d="M13 5h1v1h-1zm4 3h2v1h-2zm-3 4h1v1h-1z" fill="#c2b200"/><path d="M10 7h1v4h-1z" fill="#fff"/><path d="M10 8h1v2h-1z" fill="#00a2ff"/><path d="M10 9h1v1h-1z" fill="#000"/><path d="M9 6h2v1H9zm0 5h2v1H9zM8 7h1v4H8z" fill="#000"/><path d="M8 10h1v1H8z" fill="#ffec00"/><path d="M11 15h8v1h-8z" fill="#000"/><path d="M11 16h8v2h-8z" fill="#fff"/><path d="M11 18h8v1h-8z" fill="#000"/><path d="M11 19h8v5h-8z" fill="#7a4400"/><path d="M10 19h1v5h-1zM19 19h1v5h-1zM11 24h8v1h-8z" fill="#000"/><path d="M13 11h1v2h-1z" fill="#ffec00"/><path d="M12 11h1v2h-1z" fill="#000"/><path d="M14 25h3v2h-3z" fill="#ffec00"/><path d="M14 24h3v1h-3zm-1 1h1v2h-1zm3 0h1v2h-1zm-1 2h3v1h-3z" fill="#000"/><path d="M14 27h3v2h-3z" fill="#fff"/><path d="M14 28h3v1h-3z" fill="#f00"/><path d="M13 29h5v2h-5z" fill="#000"/><path d="M17 27h3v1h-3zm4 1h1v2h-1z" fill="#ffec00"/><path d="M17 26h3v1h-3zm3 1h1v1h-1zm1 1h1v2h-1zm-4 1h1v2h-1z" fill="#000"/><path d="M18 29h3v1h-3z" fill="#fff"/><path d="M17 30h5v2h-5z" fill="#000"/></svg>