<svg xmlns="http://www.w3.org/2000/svg" viewBox="0 0 32 32" shape-rendering="crispEdges"><path d="M13 2h7v1h-7zM12 3h1v12h-1zM20 3h1v12h-1z" fill="#000"/><path d="M13 3h7v12h-7z" fill="#ffec00"/><path d="M18 5h1v1h-1zm-4 3h2v1h-2zm3 4h1v1h-1z" fill="#c2b200"/><path d="M21 7h1v4h-1z" fill="#fff"/><path d="M21 8h1v2h-1z" fill="#00a2ff"/><path d="M21 9h1v1h-1z" fill="#000"/><path d="M21 6h2v1h-2zm0 5h2v1h-2zM23 7h1v4h-1z" fill="#000"/><path d="M23 10h1v1h-1z" fill="#ffec00"/><path d="M13 15h8v1h-8z" fill="#000"/><path d="M13 16h8v2h-8z" fill="#fff"/><path d="M13 18h8v1h-8z" fill="#000"/><path d="M13 19h8v5h-8z" fill="#7a4400"/><path d="M12 19h1v5h-1zM20 19h1v5h-1zM13 24h8v1h-8z" fill="#000"/><path d="M18 11h1v2h-1z" fill="#ffec00"/><path d="M19 11h1v2h-1z" fill="#000"/><path d="M15 25h3v2h-3z" fill="#ffec00"/><path d="M15 24h3v1h-3zm-1 1h1v2h-1zm3 0h1v2h-1zm-1 2h3v1h-3z" fill="#000"/><path d="M15 27h3v2h-3z" fill="#fff"/><path d="M15 28h3v1h-3z" fill="#f00"/><path d="M14 29h5v2h-5z" fill="#000"/><path d="M12 27h3v1h-3zm-1 1h1v2h-1z" fill="#ffec00"/><path d="M12 26h3v1h-3zm-1 1h1v1h-1zm-1 1h1v2h-1zm4 1h1v2h-1z" fill="#000"/><path d="M11 29h3v1h-3z" fill="#fff"/><path d="M10 30h5v2h-5z" fill="#000"/></svg>