<svg width="32" height="32" viewBox="0 0 32 32" xmlns="http://www.w3.org/2000/svg" shape-rendering="crispEdges"><rect x="6" y="26" width="20" height="1" fill="#000000"/><rect x="4" y="24" width="2" height="2" fill="#000000"/><rect x="26" y="24" width="2" height="2" fill="#000000"/><rect x="2" y="18" width="2" height="6" fill="#000000"/><rect x="28" y="18" width="2" height="6" fill="#000000"/><rect x="4" y="16" width="2" height="2" fill="#000000"/><rect x="26" y="16" width="2" height="2" fill="#000000"/><rect x="6" y="14" width="2" height="2" fill="#000000"/><rect x="24" y="14" width="2" height="2" fill="#000000"/><rect x="8" y="13" width="16" height="1" fill="#000000"/><rect x="6" y="15" width="20" height="11" fill="#226d22"/><rect x="4" y="18" width="2" height="6" fill="#226d22"/><rect x="26" y="18" width="2" height="6" fill="#226d22"/><rect x="4" y="17" width="24" height="1" fill="#226d22"/><rect x="10" y="14" width="2" height="12" fill="#4da74d"/><rect x="16" y="14" width="2" height="12" fill="#4da74d"/><rect x="22" y="14" width="2" height="12" fill="#4da74d"/><rect x="8" y="18" width="2" height="2" fill="#4da74d"/><rect x="24" y="22" width="2" height="2" fill="#4da74d"/><rect x="11" y="27" width="3" height="3" fill="#f0b080"/><rect x="18" y="27" width="3" height="3" fill="#f0b080"/><rect x="0" y="20" width="2" height="3" fill="#f0b080"/><rect x="30" y="20" width="2" height="3" fill="#f0b080"/></svg>