<svg width="32" height="32" viewBox="0 0 32 32" xmlns="http://www.w3.org/2000/svg"><rect x="0" y="0" width="32" height="32" fill="none"/><rect x="11" y="3" width="2" height="8" fill="#000000"/><rect x="19" y="3" width="2" height="8" fill="#000000"/><rect x="10" y="4" width="4" height="8" fill="#FFFFFF"/><rect x="18" y="4" width="4" height="8" fill="#FFFFFF"/><rect x="11" y="5" width="2" height="6" fill="#FFC0CB"/><rect x="19" y="5" width="2" height="6" fill="#FFC0CB"/><rect x="8" y="12" width="16" height="16" fill="#FFFFFF"/><rect x="8" y="11" width="16" height="1" fill="#000000"/><rect x="7" y="12" width="1" height="16" fill="#000000"/><rect x="24" y="12" width="1" height="16" fill="#000000"/><rect x="8" y="28" width="16" height="1" fill="#000000"/><rect x="11" y="18" width="3" height="1" fill="#000000"/><rect x="18" y="18" width="3" height="1" fill="#000000"/><rect x="14" y="23" width="4" height="1" fill="#000000"/><rect x="14" y="24" width="1" height="1" fill="#000000"/><rect x="17" y="24" width="1" height="1" fill="#000000"/></svg>