<svg xmlns="http://www.w3.org/2000/svg" viewBox="0 0 32 32" width="256" height="256" shape-rendering="crispEdges"><path fill="#4b0000" d="M11 9h10v1h3v2h2v4h1v6h-1v4h-2v2h-3v1H11v-1H8v-2H6v-4H5v-6h1v-4h2V9h3z"/><path fill="#d82121" d="M11 10h10v1h3v2h2v4h1v6h-1v4h-2v2h-3v1H11v-1H8v-2H6v-4H5v-6h1v-4h2v-2h3v-1z"/><path fill="#ff7d7d" d="M11 10h4v1h-2v2H9v2H8v-3h1v-1h2V10zM12 12h2v1h-2z"/><path fill="#ffffff" d="M10 14h4v4h-4zM18 14h4v4h-4z"/><path fill="#000000" d="M12 15h2v2h-2zM20 15h2v2h-2z"/><path fill="#4b0000" d="M14 20h4v1h-4z"/></svg>