<svg xmlns="http://www.w3.org/2000/svg" viewBox="0 0 32 32" width="128" height="128" shape-rendering="crispEdges"><rect width="32" height="32" fill="transparent"/><path d="M11 4h10v1h2v2h1v4h1v10h-1v4h-1v2h-2v1H11v-1H9v-2H8v-4H7V11h1V7h1V5h2V4z" fill="#004d00"/><path d="M11 5h10v22H11V5z" fill="#008000"/><path d="M9 7h2v4H9V7zm14 0h-2v4h2V7zM8 11h1v10H8V11zm23 0h-1v10h1V11zM9 21h2v4H9v-4zm14 0h-2v4h2v-4z" fill="#008000"/><path d="M12 6h2v2h-2V6zm6 0h2v2h-2V6zM10 8h1v2h-1V8zm11 0h1v2h-1V8zm-7 3h2v2h-2v-2zm-4 1h1v2h-1v-2zm14 0h-1v2h1v-2zm-7 3h2v2h-2v-2zm-4 1h1v2h-1v-2zm10 0h1v2h-1v-2zm-3 3h2v2h-2v-2zm-7 1h1v2h-1v-2zm11 0h1v2h-1v-2zm-8 3h2v2h-2v-2zm6 0h2v2h-2v-2zm-9 1h1v2h-1v-2zm12 0h-1v2h1v-2z" fill="#66b300"/><path d="M11 5h10v2H11V5z" fill="#a6a6a6"/></svg>