<svg xmlns="http://www.w3.org/2000/svg" viewBox="0 0 32 32" width="128" height="128" shape-rendering="crispEdges"><rect width="32" height="32" fill="transparent"/><path d="M11 4h10v1h2v2h1v4h1v10h-1v4h-1v2h-2v1H11v-1H9v-2H8v-4H7V11h1V7h1V5h2V4z" fill="#004d00"/><path d="M11 5h10v2H11V5zm-2 2h2v4H9V7zm14 0h-2v4h2V7zM9 11h14v10H9V11zm0 10h2v4H9v-4zm14 0h-2v4h2v-4zm-2 4H11v2h10v-2z" fill="#008000"/><path d="M12 6h2v1h-2V6zm6 0h2v1h-2V6zM10 8h1v1h-1V8zm11 0h1v1h-1V8zm-9 2h2v1h-2v-1zm6 0h2v1h-2v-1zM10 22h1v1h-1v-1zm11 0h1v1h-1v-1zm-8 2h2v1h-2v-1zm4 0h2v1h-2v-1zm-5 2h2v1h-2v-1zm6 0h2v1h-2v-1z" fill="#66b300"/><path d="M10 7h12v4H10V7z" fill="#a6a6a6"/><path d="M11 12h4v4h-4v-4zm6 0h4v4h-4v-4z" fill="#ffffff"/><path d="M13 13h2v2h-2v-2zm6 0h2v2h-2v-2z" fill="#000000"/><path d="M12 18h8v2h-1v1h-2v-1h-2v1h-2v-1h-1v-2z" fill="#000000"/><path d="M13 19h1v1h-1v-1zm2 0h2v1h-2v-1zm4 0h1v1h-1v-1z" fill="#ffffff"/><path d="M19 20h1v2h-1v-2zm-2 1h1v2h-1v-2z" fill="#cceeff"/></svg>