<svg xmlns="http://www.w3.org/2000/svg" viewBox="0 0 32 32" width="128" height="128" shape-rendering="crispEdges"><rect width="32" height="32" fill="transparent"/><path d="M13 4h6v1h2v2h1v4h1v10h-1v4h-1v2h-2v1h-6v-1h-1v-2h-1v-2h-1v-1H9v-4H8v-6h1V8h1V7h1V5h2V4z" fill="#004d00"/><path d="M13 5h6v22h-6V5z" fill="#008000"/><path d="M11 7h2v2h-2V7zm8 0h2v4h-2V7zM10 9h1v1h-1V9zm2 1h1v1h-1v-1zm7 2h2v4h-2v-4zm-7 2h1v1h-1v-1zm1 2h1v1h-1v-1zm6 0h2v4h-2v-4zm-6 3h1v1h-1v-1zm6 2h2v4h-2v-4zm-5 1h1v1h-1v-1zm-1 2h1v1h-1v-1z" fill="#66b300"/><path d="M10 7h3v3h-3V7zm0 3h4v1h-4v-1z" fill="#a6a6a6"/><path d="M9 12h3v4H9v-4z" fill="#ffffff"/><path d="M9 13h2v2H9v-2z" fill="#000000"/><path d="M10 18h3v2h-1v-1h-2v-1z" fill="#000000"/></svg>