<svg xmlns="http://www.w3.org/2000/svg" viewBox="0 0 32 32" width="128" height="128" shape-rendering="crispEdges"><rect width="32" height="32" fill="transparent"/><path d="M13 4h6v1h2v2h1v1h1v2h1v6h-1v4h-1v1h-1v2h-1v2h-1v1h-6v-1h-2v-2h-1v-4h-1v-10h1v-4h1v-2h2V4z" fill="#004d00"/><path d="M13 5h6v22h-6V5z" fill="#008000"/><path d="M11 7h2v4h-2V7zm8 0h2v2h-2V7zm2 2h1v1h-1V9zm-2 1h-1v1h1v-1zm-2 2h-2v4h2v-4zm7 2h-1v1h1v-1zm-1 2h-1v1h1v-1zm-6 0h-2v4h2v-4zm6 3h-1v1h1v-1zm-6 2h-2v4h2v-4zm5 1h-1v1h1v-1zm1 2h-1v1h1v-1z" fill="#66b300"/><path d="M19 7h3v3h-3V7zm-1 3h4v1h-4v-1z" fill="#a6a6a6"/><path d="M20 12h3v4h-3v-4z" fill="#ffffff"/><path d="M21 13h2v2h-2v-2z" fill="#000000"/><path d="M19 18h3v1h-2v1h-1v-2z" fill="#000000"/></svg>